<svg xmlns="http://www.w3.org/2000/svg" xmlns:xlink="http://www.w3.org/1999/xlink" width="500" zoomAndPan="magnify" viewBox="0 0 375 374.999991" height="500" preserveAspectRatio="xMidYMid meet" version="1.0"><defs><clipPath id="988b0a0735"><path d="M 74.265625 197 L 221 197 L 221 208 L 74.265625 208 Z M 74.265625 197 " clip-rule="nonzero"/></clipPath></defs><rect x="-37.5" width="450" fill="#ffffff" y="-37.499999" height="449.999989" fill-opacity="1"/><rect x="-37.5" width="450" fill="#ffffff" y="-37.499999" height="449.999989" fill-opacity="1"/><rect x="-37.5" width="450" fill="#050505" y="-37.499999" height="449.999989" fill-opacity="1"/><path fill="#b1663c" d="M 75.320312 181.0625 L 81.707031 181.0625 C 81.816406 181.390625 82.136719 181.675781 82.664062 181.910156 C 83.195312 182.128906 83.90625 182.304688 84.792969 182.429688 C 85.699219 182.539062 86.742188 182.59375 87.929688 182.59375 C 89.097656 182.59375 90.019531 182.5625 90.6875 182.5 C 91.375 182.421875 91.859375 182.296875 92.140625 182.121094 C 92.421875 181.933594 92.558594 181.683594 92.558594 181.367188 C 92.558594 181.070312 92.335938 180.839844 91.882812 180.683594 C 91.429688 180.511719 90.625 180.394531 89.472656 180.332031 C 88.320312 180.269531 86.695312 180.238281 84.605469 180.238281 C 83.046875 180.238281 81.699219 180.164062 80.5625 180.023438 C 79.4375 179.867188 78.511719 179.632812 77.777344 179.316406 C 77.058594 178.988281 76.53125 178.578125 76.1875 178.089844 C 75.84375 177.589844 75.671875 176.992188 75.671875 176.300781 C 75.671875 175.105469 76.070312 174.125 76.863281 173.355469 C 77.675781 172.566406 78.890625 171.988281 80.515625 171.609375 C 82.152344 171.214844 84.195312 171.019531 86.640625 171.019531 C 90.230469 171.019531 92.964844 171.546875 94.851562 172.597656 C 96.753906 173.636719 97.707031 175.136719 97.707031 177.101562 L 91.648438 177.101562 C 91.570312 176.582031 91.085938 176.191406 90.199219 175.921875 C 89.308594 175.640625 88.046875 175.5 86.410156 175.5 C 84.785156 175.5 83.578125 175.59375 82.78125 175.78125 C 82.003906 175.96875 81.613281 176.292969 81.613281 176.746094 C 81.613281 176.984375 81.722656 177.171875 81.941406 177.3125 C 82.160156 177.457031 82.535156 177.574219 83.0625 177.667969 C 83.609375 177.746094 84.375 177.800781 85.355469 177.832031 C 86.339844 177.863281 87.585938 177.878906 89.097656 177.878906 C 90.765625 177.878906 92.1875 177.964844 93.355469 178.140625 C 94.523438 178.296875 95.46875 178.539062 96.1875 178.871094 C 96.917969 179.199219 97.449219 179.625 97.777344 180.140625 C 98.105469 180.644531 98.269531 181.242188 98.269531 181.933594 C 98.269531 183.128906 97.894531 184.101562 97.144531 184.855469 C 96.394531 185.609375 95.210938 186.167969 93.589844 186.53125 C 91.96875 186.890625 89.847656 187.074219 87.226562 187.074219 C 85.746094 187.074219 84.382812 186.984375 83.132812 186.8125 C 81.902344 186.640625 80.800781 186.390625 79.835938 186.058594 C 78.867188 185.714844 78.050781 185.296875 77.378906 184.808594 C 76.710938 184.304688 76.195312 183.75 75.835938 183.136719 C 75.492188 182.507812 75.320312 181.816406 75.320312 181.0625 Z M 111.125 186.953125 C 108.644531 186.953125 106.578125 186.75 104.925781 186.339844 C 103.289062 185.933594 102.058594 185.28125 101.230469 184.386719 C 100.417969 183.488281 100.015625 182.3125 100.015625 180.847656 C 100.015625 179.386719 100.417969 178.210938 101.230469 177.3125 C 102.058594 176.402344 103.289062 175.742188 104.925781 175.332031 C 106.578125 174.910156 108.644531 174.699219 111.125 174.699219 C 113.589844 174.699219 115.632812 174.910156 117.253906 175.332031 C 118.890625 175.742188 120.113281 176.402344 120.925781 177.3125 C 121.738281 178.210938 122.140625 179.386719 122.140625 180.847656 C 122.140625 182.3125 121.738281 183.488281 120.925781 184.386719 C 120.113281 185.28125 118.890625 185.933594 117.253906 186.339844 C 115.632812 186.75 113.589844 186.953125 111.125 186.953125 Z M 111.125 183.535156 C 112.277344 183.535156 113.246094 183.441406 114.023438 183.253906 C 114.804688 183.050781 115.398438 182.75 115.804688 182.359375 C 116.207031 181.949219 116.410156 181.445312 116.410156 180.847656 C 116.410156 180.253906 116.207031 179.75 115.804688 179.339844 C 115.414062 178.933594 114.828125 178.625 114.046875 178.421875 C 113.269531 178.21875 112.292969 178.113281 111.125 178.113281 C 109.972656 178.113281 108.988281 178.21875 108.175781 178.421875 C 107.382812 178.625 106.773438 178.933594 106.351562 179.339844 C 105.949219 179.734375 105.746094 180.238281 105.746094 180.847656 C 105.746094 181.445312 105.949219 181.949219 106.351562 182.359375 C 106.757812 182.75 107.359375 183.050781 108.152344 183.253906 C 108.964844 183.441406 109.957031 183.535156 111.125 183.535156 Z M 138.273438 186.953125 C 136.871094 186.953125 135.605469 186.8125 134.484375 186.53125 C 133.359375 186.230469 132.402344 185.816406 131.605469 185.28125 C 130.8125 184.730469 130.203125 184.078125 129.78125 183.324219 C 129.359375 182.570312 129.152344 181.738281 129.152344 180.824219 C 129.152344 179.914062 129.359375 179.089844 129.78125 178.351562 C 130.203125 177.597656 130.8125 176.953125 131.605469 176.417969 C 132.402344 175.867188 133.359375 175.453125 134.484375 175.167969 C 135.605469 174.871094 136.871094 174.722656 138.273438 174.722656 C 139.957031 174.722656 141.453125 174.964844 142.765625 175.453125 C 144.089844 175.921875 145.125 176.613281 145.875 177.527344 C 146.625 178.4375 146.996094 179.539062 146.996094 180.824219 C 146.996094 182.175781 146.625 183.308594 145.875 184.21875 C 145.125 185.132812 144.089844 185.816406 142.765625 186.269531 C 141.453125 186.726562 139.957031 186.953125 138.273438 186.953125 Z M 136.167969 183.347656 C 137.226562 183.347656 138.132812 183.253906 138.882812 183.066406 C 139.628906 182.875 140.199219 182.601562 140.589844 182.238281 C 140.976562 181.863281 141.171875 181.390625 141.171875 180.824219 C 141.171875 179.992188 140.738281 179.363281 139.863281 178.941406 C 138.992188 178.515625 137.757812 178.304688 136.167969 178.304688 C 134.984375 178.304688 133.890625 178.375 132.894531 178.515625 C 131.910156 178.65625 131.117188 178.917969 130.507812 179.292969 C 129.914062 179.65625 129.617188 180.164062 129.617188 180.824219 C 129.617188 181.484375 129.914062 182.003906 130.507812 182.382812 C 131.117188 182.742188 131.910156 182.996094 132.894531 183.136719 C 133.890625 183.277344 134.984375 183.347656 136.167969 183.347656 Z M 124.003906 175.050781 L 129.289062 175.050781 L 129.617188 179.53125 L 129.617188 191.316406 L 124.003906 191.316406 Z M 164.738281 186.601562 L 164.738281 182.3125 C 164.738281 181.605469 164.597656 181.007812 164.316406 180.519531 C 164.039062 180.03125 163.539062 179.671875 162.820312 179.433594 C 162.121094 179.183594 161.121094 179.058594 159.828125 179.058594 C 159.09375 179.058594 158.375 179.128906 157.675781 179.269531 C 156.988281 179.394531 156.363281 179.554688 155.804688 179.742188 C 155.257812 179.929688 154.820312 180.117188 154.492188 180.308594 L 154.445312 179.175781 C 154.507812 178.941406 154.71875 178.585938 155.078125 178.113281 C 155.453125 177.628906 155.992188 177.125 156.691406 176.605469 C 157.394531 176.070312 158.277344 175.625 159.335938 175.261719 C 160.410156 174.886719 161.683594 174.699219 163.148438 174.699219 C 164.070312 174.699219 164.957031 174.785156 165.816406 174.957031 C 166.671875 175.128906 167.4375 175.421875 168.109375 175.828125 C 168.792969 176.222656 169.339844 176.753906 169.746094 177.429688 C 170.148438 178.105469 170.351562 178.949219 170.351562 179.953125 L 170.351562 186.601562 Z M 149.113281 186.601562 L 149.113281 170.335938 L 154.726562 170.335938 L 154.726562 186.601562 Z M 178.628906 168.992188 L 178.628906 172.527344 L 172.6875 172.527344 L 172.6875 168.992188 Z M 172.851562 175.050781 L 178.464844 175.050781 L 178.464844 186.601562 L 172.851562 186.601562 Z M 196.785156 182.453125 L 202.304688 182.453125 C 202.164062 183.363281 201.714844 184.15625 200.949219 184.832031 C 200.199219 185.507812 199.101562 186.035156 197.652344 186.414062 C 196.21875 186.773438 194.386719 186.953125 192.15625 186.953125 C 189.800781 186.953125 187.765625 186.765625 186.050781 186.390625 C 184.351562 186.011719 183.039062 185.375 182.121094 184.480469 C 181.199219 183.582031 180.738281 182.375 180.738281 180.847656 C 180.738281 179.339844 181.183594 178.140625 182.074219 177.242188 C 182.976562 176.332031 184.28125 175.679688 185.980469 175.285156 C 187.679688 174.894531 189.738281 174.699219 192.15625 174.699219 C 194.527344 174.699219 196.46875 174.910156 197.980469 175.332031 C 199.492188 175.757812 200.605469 176.449219 201.324219 177.40625 C 202.042969 178.351562 202.386719 179.632812 202.351562 181.25 L 186.445312 181.25 C 186.527344 181.660156 186.742188 182.035156 187.101562 182.382812 C 187.476562 182.726562 188.046875 183.011719 188.808594 183.230469 C 189.589844 183.433594 190.625 183.535156 191.921875 183.535156 C 193.261719 183.535156 194.363281 183.441406 195.21875 183.253906 C 196.09375 183.066406 196.613281 182.796875 196.785156 182.453125 Z M 191.921875 178.113281 C 190.269531 178.113281 189.003906 178.296875 188.132812 178.65625 C 187.273438 179.019531 186.765625 179.378906 186.609375 179.742188 L 196.902344 179.742188 C 196.792969 179.332031 196.355469 178.964844 195.59375 178.632812 C 194.828125 178.289062 193.605469 178.113281 191.921875 178.113281 Z M 212.054688 186.601562 L 212.054688 171.515625 L 226.789062 171.515625 C 229.816406 171.515625 232.046875 171.8125 233.480469 172.410156 C 234.914062 173.007812 235.632812 174.046875 235.632812 175.523438 C 235.632812 176.464844 235.320312 177.1875 234.695312 177.691406 C 234.089844 178.195312 233.207031 178.546875 232.054688 178.75 C 230.914062 178.941406 229.542969 179.058594 227.9375 179.105469 L 228.125 178.917969 C 229.292969 178.917969 230.375 178.949219 231.375 179.011719 C 232.371094 179.074219 233.246094 179.214844 233.996094 179.433594 C 234.742188 179.65625 235.328125 179.992188 235.75 180.449219 C 236.167969 180.90625 236.378906 181.53125 236.378906 182.335938 C 236.378906 183.308594 236.035156 184.109375 235.351562 184.738281 C 234.664062 185.367188 233.691406 185.839844 232.425781 186.152344 C 231.164062 186.453125 229.675781 186.601562 227.960938 186.601562 Z M 217.902344 182.167969 L 227.960938 182.167969 C 228.785156 182.167969 229.378906 182.089844 229.738281 181.933594 C 230.113281 181.777344 230.296875 181.523438 230.296875 181.179688 C 230.296875 180.945312 230.210938 180.753906 230.042969 180.613281 C 229.886719 180.472656 229.636719 180.371094 229.292969 180.308594 C 228.949219 180.230469 228.503906 180.1875 227.960938 180.1875 L 217.902344 180.1875 Z M 217.902344 177.925781 L 226.976562 177.925781 C 227.804688 177.925781 228.398438 177.847656 228.753906 177.691406 C 229.128906 177.535156 229.316406 177.28125 229.316406 176.9375 C 229.316406 176.574219 229.128906 176.324219 228.753906 176.183594 C 228.398438 176.023438 227.804688 175.945312 226.976562 175.945312 L 217.902344 175.945312 Z M 238.476562 170.335938 L 244.089844 170.335938 L 244.089844 186.601562 L 238.476562 186.601562 Z M 267.792969 186.601562 L 262.179688 186.601562 L 262.179688 175.050781 L 267.792969 175.050781 Z M 262.414062 180.636719 L 262.460938 181.769531 C 262.414062 182.097656 262.257812 182.484375 261.992188 182.921875 C 261.742188 183.363281 261.394531 183.820312 260.941406 184.289062 C 260.488281 184.761719 259.933594 185.203125 259.28125 185.609375 C 258.625 186.003906 257.875 186.324219 257.035156 186.578125 C 256.191406 186.828125 255.257812 186.953125 254.226562 186.953125 C 253.199219 186.953125 252.222656 186.84375 251.304688 186.625 C 250.382812 186.421875 249.566406 186.074219 248.847656 185.585938 C 248.128906 185.101562 247.570312 184.449219 247.164062 183.632812 C 246.757812 182.796875 246.554688 181.761719 246.554688 180.519531 L 246.554688 175.050781 L 252.167969 175.050781 L 252.167969 179.929688 C 252.167969 180.792969 252.308594 181.460938 252.589844 181.933594 C 252.886719 182.40625 253.347656 182.734375 253.96875 182.921875 C 254.59375 183.097656 255.398438 183.183594 256.378906 183.183594 C 257.300781 183.183594 258.148438 183.050781 258.929688 182.78125 C 259.722656 182.5 260.417969 182.160156 261.011719 181.769531 C 261.617188 181.375 262.085938 181 262.414062 180.636719 Z M 285.710938 182.453125 L 291.234375 182.453125 C 291.09375 183.363281 290.640625 184.15625 289.875 184.832031 C 289.128906 185.507812 288.027344 186.035156 286.578125 186.414062 C 285.144531 186.773438 283.3125 186.953125 281.082031 186.953125 C 278.726562 186.953125 276.691406 186.765625 274.976562 186.390625 C 273.277344 186.011719 271.964844 185.375 271.046875 184.480469 C 270.128906 183.582031 269.667969 182.375 269.667969 180.847656 C 269.667969 179.339844 270.109375 178.140625 271 177.242188 C 271.90625 176.332031 273.207031 175.679688 274.90625 175.285156 C 276.605469 174.894531 278.664062 174.699219 281.082031 174.699219 C 283.453125 174.699219 285.394531 174.910156 286.90625 175.332031 C 288.417969 175.757812 289.53125 176.449219 290.25 177.40625 C 290.96875 178.351562 291.3125 179.632812 291.28125 181.25 L 275.375 181.25 C 275.453125 181.660156 275.671875 182.035156 276.027344 182.382812 C 276.402344 182.726562 276.972656 183.011719 277.738281 183.230469 C 278.515625 183.433594 279.554688 183.535156 280.847656 183.535156 C 282.1875 183.535156 283.289062 183.441406 284.144531 183.253906 C 285.019531 183.066406 285.542969 182.796875 285.710938 182.453125 Z M 280.847656 178.113281 C 279.195312 178.113281 277.929688 178.296875 277.058594 178.65625 C 276.199219 179.019531 275.695312 179.378906 275.539062 179.742188 L 285.828125 179.742188 C 285.71875 179.332031 285.285156 178.964844 284.519531 178.632812 C 283.753906 178.289062 282.53125 178.113281 280.847656 178.113281 Z M 293.503906 170.335938 L 299.117188 170.335938 L 299.117188 186.601562 L 293.503906 186.601562 Z M 293.503906 170.335938 " fill-opacity="1" fill-rule="nonzero"/><g clip-path="url(#988b0a0735)"><path fill="#93532f" d="M 81.085938 206.957031 L 80.183594 206.957031 L 79.4375 204.996094 L 76.257812 204.996094 L 75.515625 206.957031 L 74.621094 206.957031 L 77.355469 199.886719 L 78.363281 199.886719 Z M 76.566406 204.195312 L 79.128906 204.195312 L 77.84375 200.710938 Z M 85.703125 199.886719 C 86.417969 199.886719 86.992188 200.070312 87.425781 200.445312 C 87.855469 200.816406 88.074219 201.320312 88.074219 201.953125 C 88.074219 202.589844 87.855469 203.085938 87.414062 203.445312 C 86.980469 203.792969 86.40625 203.96875 85.691406 203.96875 L 85.617188 204.023438 L 83.894531 204.023438 L 83.894531 206.957031 L 83.042969 206.957031 L 83.042969 199.886719 Z M 85.691406 203.21875 C 86.195312 203.21875 86.566406 203.113281 86.808594 202.90625 C 87.054688 202.695312 87.179688 202.375 87.179688 201.953125 C 87.179688 201.53125 87.054688 201.21875 86.808594 201.011719 C 86.566406 200.796875 86.195312 200.691406 85.691406 200.691406 L 83.894531 200.691406 L 83.894531 203.21875 Z M 86.179688 203.390625 L 88.5 206.957031 L 87.488281 206.957031 L 85.46875 203.863281 Z M 96.242188 205.148438 C 96.09375 205.546875 95.878906 205.894531 95.601562 206.1875 C 95.328125 206.472656 95 206.691406 94.625 206.839844 C 94.257812 206.988281 93.851562 207.066406 93.414062 207.066406 C 92.746094 207.066406 92.167969 206.917969 91.679688 206.625 C 91.199219 206.324219 90.820312 205.90625 90.554688 205.363281 C 90.289062 204.820312 90.160156 204.171875 90.160156 203.421875 C 90.160156 202.671875 90.289062 202.027344 90.554688 201.484375 C 90.820312 200.941406 91.199219 200.523438 91.679688 200.230469 C 92.167969 199.929688 92.738281 199.78125 93.390625 199.78125 C 93.84375 199.78125 94.25 199.84375 94.605469 199.972656 C 94.957031 200.09375 95.257812 200.28125 95.507812 200.53125 C 95.761719 200.773438 95.964844 201.074219 96.113281 201.429688 L 95.273438 201.824219 C 95.117188 201.417969 94.890625 201.113281 94.59375 200.90625 C 94.300781 200.691406 93.921875 200.582031 93.457031 200.582031 C 92.980469 200.582031 92.5625 200.699219 92.199219 200.925781 C 91.839844 201.148438 91.554688 201.46875 91.351562 201.890625 C 91.152344 202.3125 91.050781 202.824219 91.050781 203.421875 C 91.050781 204.015625 91.148438 204.527344 91.339844 204.953125 C 91.53125 205.375 91.804688 205.699219 92.160156 205.929688 C 92.511719 206.152344 92.929688 206.261719 93.414062 206.261719 C 93.878906 206.261719 94.289062 206.144531 94.636719 205.90625 C 94.984375 205.664062 95.234375 205.304688 95.390625 204.824219 Z M 103.914062 199.886719 L 103.914062 206.957031 L 103.0625 206.957031 L 103.0625 199.886719 Z M 99.253906 199.886719 L 99.253906 206.957031 L 98.40625 206.957031 L 98.40625 199.886719 Z M 103.457031 202.972656 L 103.457031 203.777344 L 98.851562 203.777344 L 98.851562 202.972656 Z M 107.59375 199.886719 L 107.59375 206.957031 L 106.746094 206.957031 L 106.746094 199.886719 Z M 115.355469 199.886719 L 115.355469 200.691406 L 112.910156 200.691406 L 112.910156 206.957031 L 112.058594 206.957031 L 112.058594 200.691406 L 109.613281 200.691406 L 109.613281 199.886719 Z M 117.371094 206.957031 L 117.371094 199.886719 L 122.292969 199.886719 L 122.292969 200.691406 L 118.222656 200.691406 L 118.222656 202.972656 L 121.390625 202.972656 L 121.390625 203.777344 L 118.222656 203.777344 L 118.222656 206.15625 L 122.453125 206.15625 L 122.453125 206.957031 Z M 130.183594 205.148438 C 130.035156 205.546875 129.820312 205.894531 129.546875 206.1875 C 129.269531 206.472656 128.941406 206.691406 128.566406 206.839844 C 128.199219 206.988281 127.792969 207.066406 127.355469 207.066406 C 126.6875 207.066406 126.109375 206.917969 125.621094 206.625 C 125.140625 206.324219 124.765625 205.90625 124.496094 205.363281 C 124.234375 204.820312 124.101562 204.171875 124.101562 203.421875 C 124.101562 202.671875 124.234375 202.027344 124.496094 201.484375 C 124.765625 200.941406 125.140625 200.523438 125.621094 200.230469 C 126.109375 199.929688 126.679688 199.78125 127.332031 199.78125 C 127.789062 199.78125 128.191406 199.84375 128.546875 199.972656 C 128.898438 200.09375 129.203125 200.28125 129.449219 200.53125 C 129.703125 200.773438 129.90625 201.074219 130.054688 201.429688 L 129.214844 201.824219 C 129.058594 201.417969 128.832031 201.113281 128.535156 200.90625 C 128.246094 200.691406 127.867188 200.582031 127.398438 200.582031 C 126.921875 200.582031 126.503906 200.699219 126.144531 200.925781 C 125.78125 201.148438 125.496094 201.46875 125.292969 201.890625 C 125.09375 202.3125 124.996094 202.824219 124.996094 203.421875 C 124.996094 204.015625 125.089844 204.527344 125.28125 204.953125 C 125.472656 205.375 125.746094 205.699219 126.101562 205.929688 C 126.453125 206.152344 126.871094 206.261719 127.355469 206.261719 C 127.824219 206.261719 128.230469 206.144531 128.578125 205.90625 C 128.925781 205.664062 129.175781 205.304688 129.332031 204.824219 Z M 137.28125 199.886719 L 137.28125 200.691406 L 134.835938 200.691406 L 134.835938 206.957031 L 133.984375 206.957031 L 133.984375 200.691406 L 131.539062 200.691406 L 131.539062 199.886719 Z M 139.296875 206.957031 L 139.296875 199.886719 L 144.21875 199.886719 L 144.21875 200.691406 L 140.144531 200.691406 L 140.144531 202.972656 L 143.316406 202.972656 L 143.316406 203.777344 L 140.144531 203.777344 L 140.144531 206.15625 L 144.378906 206.15625 L 144.378906 206.957031 Z M 153.027344 199.886719 C 154.125 199.886719 154.988281 200.195312 155.609375 200.808594 C 156.242188 201.414062 156.558594 202.285156 156.558594 203.421875 C 156.558594 204.558594 156.242188 205.433594 155.609375 206.046875 C 154.988281 206.65625 154.125 206.957031 153.027344 206.957031 L 150.761719 206.957031 L 150.761719 199.886719 Z M 153.113281 206.15625 C 153.914062 206.15625 154.539062 205.914062 154.984375 205.4375 C 155.4375 204.949219 155.664062 204.28125 155.664062 203.421875 C 155.664062 202.566406 155.4375 201.898438 154.984375 201.417969 C 154.539062 200.933594 153.914062 200.691406 153.113281 200.691406 L 151.613281 200.691406 L 151.613281 206.15625 Z M 159.097656 199.457031 C 159.269531 199.457031 159.410156 199.503906 159.523438 199.597656 C 159.644531 199.683594 159.734375 199.804688 159.800781 199.960938 C 159.863281 200.113281 159.894531 200.289062 159.894531 200.496094 C 159.894531 200.734375 159.851562 200.964844 159.765625 201.195312 C 159.691406 201.421875 159.566406 201.632812 159.394531 201.824219 C 159.226562 202.019531 159.003906 202.179688 158.734375 202.308594 L 158.289062 201.890625 C 158.480469 201.824219 158.648438 201.738281 158.789062 201.621094 C 158.9375 201.507812 159.058594 201.378906 159.152344 201.238281 C 159.242188 201.09375 159.304688 200.949219 159.332031 200.796875 L 159.289062 200.777344 C 159.261719 200.796875 159.226562 200.816406 159.183594 200.828125 C 159.140625 200.84375 159.078125 200.851562 158.992188 200.851562 C 158.90625 200.851562 158.816406 200.824219 158.726562 200.777344 C 158.640625 200.726562 158.566406 200.65625 158.503906 200.5625 C 158.4375 200.460938 158.40625 200.332031 158.40625 200.175781 C 158.40625 200.046875 158.4375 199.929688 158.503906 199.824219 C 158.566406 199.707031 158.648438 199.617188 158.746094 199.554688 C 158.851562 199.488281 158.96875 199.457031 159.097656 199.457031 Z M 162.945312 199.886719 L 162.945312 206.957031 L 162.09375 206.957031 L 162.09375 199.886719 Z M 171.28125 199.886719 L 171.28125 206.957031 L 170.226562 206.957031 L 167.292969 202.222656 L 166.546875 200.894531 L 166.539062 200.894531 L 166.582031 201.964844 L 166.582031 206.957031 L 165.773438 206.957031 L 165.773438 199.886719 L 166.824219 199.886719 L 169.75 204.601562 L 170.503906 205.960938 L 170.515625 205.960938 L 170.472656 204.878906 L 170.472656 199.886719 Z M 179.046875 199.886719 L 179.046875 200.691406 L 176.601562 200.691406 L 176.601562 206.957031 L 175.75 206.957031 L 175.75 200.691406 L 173.304688 200.691406 L 173.304688 199.886719 Z M 181.0625 206.957031 L 181.0625 199.886719 L 185.984375 199.886719 L 185.984375 200.691406 L 181.910156 200.691406 L 181.910156 202.972656 L 185.078125 202.972656 L 185.078125 203.777344 L 181.910156 203.777344 L 181.910156 206.15625 L 186.144531 206.15625 L 186.144531 206.957031 Z M 183.773438 197.292969 L 184.664062 197.292969 L 183.75 198.996094 L 183.070312 198.996094 Z M 191.03125 199.886719 C 191.746094 199.886719 192.320312 200.070312 192.753906 200.445312 C 193.183594 200.816406 193.402344 201.320312 193.402344 201.953125 C 193.402344 202.589844 193.179688 203.085938 192.742188 203.445312 C 192.308594 203.792969 191.734375 203.96875 191.019531 203.96875 L 190.945312 204.023438 L 189.222656 204.023438 L 189.222656 206.957031 L 188.371094 206.957031 L 188.371094 199.886719 Z M 191.019531 203.21875 C 191.523438 203.21875 191.894531 203.113281 192.136719 202.90625 C 192.382812 202.695312 192.507812 202.375 192.507812 201.953125 C 192.507812 201.53125 192.382812 201.21875 192.136719 201.011719 C 191.894531 200.796875 191.523438 200.691406 191.019531 200.691406 L 189.222656 200.691406 L 189.222656 203.21875 Z M 191.507812 203.390625 L 193.828125 206.957031 L 192.816406 206.957031 L 190.796875 203.863281 Z M 196.824219 199.886719 L 196.824219 206.957031 L 195.976562 206.957031 L 195.976562 199.886719 Z M 199.652344 206.957031 L 199.652344 199.886719 L 204.574219 199.886719 L 204.574219 200.691406 L 200.503906 200.691406 L 200.503906 202.972656 L 203.671875 202.972656 L 203.671875 203.777344 L 200.503906 203.777344 L 200.503906 206.15625 L 204.734375 206.15625 L 204.734375 206.957031 Z M 212.332031 199.886719 L 212.332031 204.324219 C 212.332031 205.230469 212.097656 205.914062 211.621094 206.378906 C 211.144531 206.835938 210.464844 207.066406 209.578125 207.066406 C 208.699219 207.066406 208.019531 206.835938 207.539062 206.378906 C 207.0625 205.914062 206.824219 205.230469 206.824219 204.324219 L 206.824219 199.886719 L 207.675781 199.886719 L 207.675781 204.109375 C 207.675781 204.84375 207.828125 205.386719 208.132812 205.738281 C 208.445312 206.085938 208.929688 206.261719 209.578125 206.261719 C 210.230469 206.261719 210.710938 206.085938 211.015625 205.738281 C 211.328125 205.386719 211.484375 204.84375 211.484375 204.109375 L 211.484375 199.886719 Z M 217.679688 199.886719 C 218.398438 199.886719 218.972656 200.070312 219.402344 200.445312 C 219.835938 200.816406 220.050781 201.320312 220.050781 201.953125 C 220.050781 202.589844 219.832031 203.085938 219.394531 203.445312 C 218.960938 203.792969 218.386719 203.96875 217.671875 203.96875 L 217.597656 204.023438 L 215.875 204.023438 L 215.875 206.957031 L 215.023438 206.957031 L 215.023438 199.886719 Z M 217.671875 203.21875 C 218.171875 203.21875 218.546875 203.113281 218.789062 202.90625 C 219.035156 202.695312 219.160156 202.375 219.160156 201.953125 C 219.160156 201.53125 219.035156 201.21875 218.789062 201.011719 C 218.546875 200.796875 218.171875 200.691406 217.671875 200.691406 L 215.875 200.691406 L 215.875 203.21875 Z M 218.160156 203.390625 L 220.476562 206.957031 L 219.46875 206.957031 L 217.449219 203.863281 Z M 218.160156 203.390625 " fill-opacity="1" fill-rule="nonzero"/></g></svg>