<svg xmlns="http://www.w3.org/2000/svg" xmlns:xlink="http://www.w3.org/1999/xlink" width="500" zoomAndPan="magnify" viewBox="0 0 375 374.999991" height="500" preserveAspectRatio="xMidYMid meet" version="1.0"><defs><g/></defs><rect x="-37.5" width="450" fill="#ffffff" y="-37.499999" height="449.999989" fill-opacity="1"/><rect x="-37.5" width="450" fill="#ffffff" y="-37.499999" height="449.999989" fill-opacity="1"/><rect x="-37.5" width="450" fill="#050505" y="-37.499999" height="449.999989" fill-opacity="1"/><g fill="#f1f1f1" fill-opacity="1"><g transform="translate(88.605467, 194.249987)"><g><path d="M 17.390625 -4.84375 L 17.390625 -22.546875 L 20.25 -22.546875 L 20.25 0 L 17.203125 0 L 5.359375 -17.703125 L 5.359375 0 L 2.484375 0 L 2.484375 -22.546875 L 5.546875 -22.546875 Z M 17.390625 -4.84375 "/></g></g></g><g fill="#f1f1f1" fill-opacity="1"><g transform="translate(111.348492, 194.249987)"><g><path d="M 4.875 -19.40625 L 2.109375 -19.40625 L 2.109375 -22.546875 L 4.875 -22.546875 Z M 4.875 0 L 2.109375 0 L 2.109375 -16.3125 L 4.875 -16.3125 Z M 4.875 0 "/></g></g></g><g fill="#f1f1f1" fill-opacity="1"><g transform="translate(118.341496, 194.249987)"><g><path d="M 9.828125 -16.6875 C 11.003906 -16.6875 12.015625 -16.457031 12.859375 -16 C 13.710938 -15.539062 14.335938 -14.953125 14.734375 -14.234375 C 14.992188 -13.753906 15.175781 -13.234375 15.28125 -12.671875 C 15.382812 -12.117188 15.4375 -11.421875 15.4375 -10.578125 L 15.4375 0 L 12.65625 0 L 12.65625 -10.078125 C 12.65625 -12.890625 11.515625 -14.296875 9.234375 -14.296875 C 8.367188 -14.296875 7.570312 -14.085938 6.84375 -13.671875 C 6.125 -13.253906 5.609375 -12.644531 5.296875 -11.84375 C 5.035156 -11.175781 4.90625 -10.273438 4.90625 -9.140625 L 4.90625 0 L 2.140625 0 L 2.140625 -16.3125 L 4.625 -16.3125 L 4.625 -14.015625 C 5.863281 -15.796875 7.597656 -16.6875 9.828125 -16.6875 Z M 9.828125 -16.6875 "/></g></g></g><g fill="#f1f1f1" fill-opacity="1"><g transform="translate(135.855521, 194.249987)"><g><path d="M 8.953125 -16.6875 C 10.296875 -16.6875 11.378906 -16.554688 12.203125 -16.296875 C 13.035156 -16.035156 13.691406 -15.65625 14.171875 -15.15625 C 14.640625 -14.664062 14.957031 -14.125 15.125 -13.53125 C 15.289062 -12.945312 15.375 -12.175781 15.375 -11.21875 L 15.375 -4.625 C 15.375 -2.507812 15.664062 -0.96875 16.25 0 L 13.359375 0 C 13.085938 -0.5625 12.894531 -1.234375 12.78125 -2.015625 C 11.78125 -1.171875 10.800781 -0.5625 9.84375 -0.1875 C 8.882812 0.1875 7.890625 0.375 6.859375 0.375 C 5.097656 0.375 3.710938 -0.0507812 2.703125 -0.90625 C 1.703125 -1.769531 1.203125 -2.90625 1.203125 -4.3125 C 1.203125 -5.050781 1.367188 -5.757812 1.703125 -6.4375 C 2.035156 -7.125 2.5 -7.65625 3.09375 -8.03125 C 3.71875 -8.445312 4.351562 -8.75 5 -8.9375 C 5.65625 -9.132812 6.457031 -9.285156 7.40625 -9.390625 C 8.414062 -9.492188 9.414062 -9.632812 10.40625 -9.8125 C 11.40625 -9.988281 12.132812 -10.171875 12.59375 -10.359375 L 12.59375 -11.0625 C 12.59375 -12.164062 12.289062 -13 11.6875 -13.5625 C 11.09375 -14.132812 10.070312 -14.421875 8.625 -14.421875 C 7.257812 -14.421875 6.273438 -14.179688 5.671875 -13.703125 C 5.078125 -13.222656 4.644531 -12.425781 4.375 -11.3125 L 1.671875 -11.65625 C 2.046875 -13.414062 2.835938 -14.691406 4.046875 -15.484375 C 5.253906 -16.285156 6.890625 -16.6875 8.953125 -16.6875 Z M 8.625 -7.25 C 7.5625 -7.082031 6.738281 -6.914062 6.15625 -6.75 C 5.582031 -6.59375 5.101562 -6.332031 4.71875 -5.96875 C 4.34375 -5.601562 4.15625 -5.070312 4.15625 -4.375 C 4.15625 -3.5625 4.453125 -2.925781 5.046875 -2.46875 C 5.648438 -2.019531 6.5 -1.796875 7.59375 -1.796875 C 8.21875 -1.796875 8.894531 -1.925781 9.625 -2.1875 C 10.363281 -2.445312 11.007812 -2.90625 11.5625 -3.5625 C 11.914062 -3.976562 12.175781 -4.445312 12.34375 -4.96875 C 12.507812 -5.5 12.59375 -6.175781 12.59375 -7 L 12.59375 -8.1875 C 11.757812 -7.851562 10.4375 -7.539062 8.625 -7.25 Z M 8.625 -7.25 "/></g></g></g><g fill="#f1f1f1" fill-opacity="1"><g transform="translate(153.369547, 194.249987)"><g/></g></g><g fill="#f1f1f1" fill-opacity="1"><g transform="translate(162.126554, 194.249987)"><g><path d="M 12.25 -22.9375 C 14.539062 -22.9375 16.453125 -22.347656 17.984375 -21.171875 C 19.515625 -19.992188 20.578125 -18.382812 21.171875 -16.34375 L 18.203125 -15.65625 C 17.722656 -17.164062 17 -18.328125 16.03125 -19.140625 C 15.0625 -19.960938 13.78125 -20.375 12.1875 -20.375 C 9.832031 -20.375 7.992188 -19.597656 6.671875 -18.046875 C 5.347656 -16.492188 4.6875 -14.289062 4.6875 -11.4375 C 4.6875 -8.457031 5.332031 -6.164062 6.625 -4.5625 C 7.914062 -2.96875 9.71875 -2.171875 12.03125 -2.171875 C 13.664062 -2.171875 15.0625 -2.660156 16.21875 -3.640625 C 17.375 -4.617188 18.148438 -6.039062 18.546875 -7.90625 L 21.546875 -7.15625 C 20.910156 -4.78125 19.785156 -2.929688 18.171875 -1.609375 C 16.554688 -0.285156 14.539062 0.375 12.125 0.375 C 10.46875 0.375 9.050781 0.15625 7.875 -0.28125 C 6.695312 -0.71875 5.695312 -1.367188 4.875 -2.234375 C 3.75 -3.429688 2.921875 -4.828125 2.390625 -6.421875 C 1.867188 -8.015625 1.609375 -9.6875 1.609375 -11.4375 C 1.609375 -13.769531 2.050781 -15.800781 2.9375 -17.53125 C 3.832031 -19.257812 5.082031 -20.59375 6.6875 -21.53125 C 8.300781 -22.46875 10.15625 -22.9375 12.25 -22.9375 Z M 12.25 -22.9375 "/></g></g></g><g fill="#f1f1f1" fill-opacity="1"><g transform="translate(184.86958, 194.249987)"><g><path d="M 8.953125 -16.6875 C 10.296875 -16.6875 11.378906 -16.554688 12.203125 -16.296875 C 13.035156 -16.035156 13.691406 -15.65625 14.171875 -15.15625 C 14.640625 -14.664062 14.957031 -14.125 15.125 -13.53125 C 15.289062 -12.945312 15.375 -12.175781 15.375 -11.21875 L 15.375 -4.625 C 15.375 -2.507812 15.664062 -0.96875 16.25 0 L 13.359375 0 C 13.085938 -0.5625 12.894531 -1.234375 12.78125 -2.015625 C 11.78125 -1.171875 10.800781 -0.5625 9.84375 -0.1875 C 8.882812 0.1875 7.890625 0.375 6.859375 0.375 C 5.097656 0.375 3.710938 -0.0507812 2.703125 -0.90625 C 1.703125 -1.769531 1.203125 -2.90625 1.203125 -4.3125 C 1.203125 -5.050781 1.367188 -5.757812 1.703125 -6.4375 C 2.035156 -7.125 2.5 -7.65625 3.09375 -8.03125 C 3.71875 -8.445312 4.351562 -8.75 5 -8.9375 C 5.65625 -9.132812 6.457031 -9.285156 7.40625 -9.390625 C 8.414062 -9.492188 9.414062 -9.632812 10.40625 -9.8125 C 11.40625 -9.988281 12.132812 -10.171875 12.59375 -10.359375 L 12.59375 -11.0625 C 12.59375 -12.164062 12.289062 -13 11.6875 -13.5625 C 11.09375 -14.132812 10.070312 -14.421875 8.625 -14.421875 C 7.257812 -14.421875 6.273438 -14.179688 5.671875 -13.703125 C 5.078125 -13.222656 4.644531 -12.425781 4.375 -11.3125 L 1.671875 -11.65625 C 2.046875 -13.414062 2.835938 -14.691406 4.046875 -15.484375 C 5.253906 -16.285156 6.890625 -16.6875 8.953125 -16.6875 Z M 8.625 -7.25 C 7.5625 -7.082031 6.738281 -6.914062 6.15625 -6.75 C 5.582031 -6.59375 5.101562 -6.332031 4.71875 -5.96875 C 4.34375 -5.601562 4.15625 -5.070312 4.15625 -4.375 C 4.15625 -3.5625 4.453125 -2.925781 5.046875 -2.46875 C 5.648438 -2.019531 6.5 -1.796875 7.59375 -1.796875 C 8.21875 -1.796875 8.894531 -1.925781 9.625 -2.1875 C 10.363281 -2.445312 11.007812 -2.90625 11.5625 -3.5625 C 11.914062 -3.976562 12.175781 -4.445312 12.34375 -4.96875 C 12.507812 -5.5 12.59375 -6.175781 12.59375 -7 L 12.59375 -8.1875 C 11.757812 -7.851562 10.4375 -7.539062 8.625 -7.25 Z M 8.625 -7.25 "/></g></g></g><g fill="#f1f1f1" fill-opacity="1"><g transform="translate(202.383606, 194.249987)"><g><path d="M 8.09375 -16.6875 C 9.039062 -16.6875 9.976562 -16.394531 10.90625 -15.8125 L 9.953125 -13.265625 C 9.285156 -13.660156 8.582031 -13.859375 7.84375 -13.859375 C 6.789062 -13.859375 6.015625 -13.378906 5.515625 -12.421875 C 5.023438 -11.472656 4.78125 -10.238281 4.78125 -8.71875 L 4.78125 0 L 2.015625 0 L 2.015625 -16.3125 L 4.5 -16.3125 L 4.5 -13.859375 C 5.03125 -14.804688 5.550781 -15.515625 6.0625 -15.984375 C 6.570312 -16.453125 7.25 -16.6875 8.09375 -16.6875 Z M 8.09375 -16.6875 "/></g></g></g><g fill="#f1f1f1" fill-opacity="1"><g transform="translate(212.873122, 194.249987)"><g><path d="M 15.3125 -22.546875 L 15.3125 0 L 12.71875 0 L 12.71875 -2.078125 C 12.40625 -1.535156 11.875 -0.992188 11.125 -0.453125 C 10.382812 0.078125 9.40625 0.34375 8.1875 0.34375 C 6.863281 0.34375 5.664062 -0.00390625 4.59375 -0.703125 C 3.53125 -1.410156 2.6875 -2.414062 2.0625 -3.71875 C 1.445312 -5.019531 1.140625 -6.53125 1.140625 -8.25 C 1.140625 -9.976562 1.425781 -11.472656 2 -12.734375 C 2.570312 -14.003906 3.390625 -14.976562 4.453125 -15.65625 C 5.515625 -16.34375 6.75 -16.6875 8.15625 -16.6875 C 9.1875 -16.6875 10.082031 -16.445312 10.84375 -15.96875 C 11.613281 -15.488281 12.175781 -14.984375 12.53125 -14.453125 L 12.53125 -22.546875 Z M 3.96875 -8.15625 C 3.96875 -6.8125 4.164062 -5.671875 4.5625 -4.734375 C 4.96875 -3.804688 5.507812 -3.101562 6.1875 -2.625 C 6.875 -2.15625 7.625 -1.921875 8.4375 -1.921875 C 9.71875 -1.921875 10.757812 -2.4375 11.5625 -3.46875 C 12.375 -4.5 12.78125 -5.976562 12.78125 -7.90625 C 12.78125 -9.882812 12.390625 -11.460938 11.609375 -12.640625 C 10.835938 -13.828125 9.738281 -14.421875 8.3125 -14.421875 C 6.945312 -14.421875 5.878906 -13.863281 5.109375 -12.75 C 4.347656 -11.644531 3.96875 -10.113281 3.96875 -8.15625 Z M 3.96875 -8.15625 "/></g></g></g><g fill="#f1f1f1" fill-opacity="1"><g transform="translate(230.387148, 194.249987)"><g><path d="M 4.84375 -5.859375 C 4.84375 -4.597656 5.140625 -3.640625 5.734375 -2.984375 C 6.335938 -2.335938 7.21875 -2.015625 8.375 -2.015625 C 9.15625 -2.015625 9.90625 -2.238281 10.625 -2.6875 C 11.351562 -3.144531 11.875 -3.78125 12.1875 -4.59375 C 12.4375 -5.207031 12.5625 -6.132812 12.5625 -7.375 L 12.5625 -16.3125 L 15.34375 -16.3125 L 15.34375 0 L 12.859375 0 L 12.859375 -2.390625 C 11.554688 -0.546875 9.820312 0.375 7.65625 0.375 C 6.769531 0.375 5.875 0.191406 4.96875 -0.171875 C 4.070312 -0.535156 3.367188 -1.128906 2.859375 -1.953125 C 2.566406 -2.429688 2.363281 -2.960938 2.25 -3.546875 C 2.132812 -4.140625 2.078125 -4.859375 2.078125 -5.703125 L 2.078125 -16.3125 L 4.84375 -16.3125 Z M 4.84375 -5.859375 "/></g></g></g><g fill="#f1f1f1" fill-opacity="1"><g transform="translate(247.901174, 194.249987)"><g><path d="M 8.953125 -16.6875 C 10.566406 -16.6875 11.925781 -16.238281 13.03125 -15.34375 C 14.144531 -14.457031 14.863281 -13.1875 15.1875 -11.53125 L 12.5 -11.125 C 12.269531 -12.101562 11.847656 -12.894531 11.234375 -13.5 C 10.628906 -14.113281 9.8125 -14.421875 8.78125 -14.421875 C 7.3125 -14.421875 6.15625 -13.894531 5.3125 -12.84375 C 4.476562 -11.800781 4.0625 -10.269531 4.0625 -8.25 C 4.0625 -6.195312 4.453125 -4.628906 5.234375 -3.546875 C 6.023438 -2.460938 7.15625 -1.921875 8.625 -1.921875 C 9.820312 -1.921875 10.753906 -2.28125 11.421875 -3 C 12.097656 -3.726562 12.53125 -4.722656 12.71875 -5.984375 L 15.46875 -5.640625 C 15.175781 -3.742188 14.414062 -2.269531 13.1875 -1.21875 C 11.957031 -0.175781 10.4375 0.34375 8.625 0.34375 C 6.300781 0.34375 4.488281 -0.414062 3.1875 -1.9375 C 1.882812 -3.457031 1.234375 -5.601562 1.234375 -8.375 C 1.234375 -10.976562 1.921875 -13.015625 3.296875 -14.484375 C 4.671875 -15.953125 6.554688 -16.6875 8.953125 -16.6875 Z M 8.953125 -16.6875 "/></g></g></g><g fill="#f1f1f1" fill-opacity="1"><g transform="translate(263.651196, 194.249987)"><g><path d="M 8.953125 -16.6875 C 10.566406 -16.6875 11.925781 -16.238281 13.03125 -15.34375 C 14.144531 -14.457031 14.863281 -13.1875 15.1875 -11.53125 L 12.5 -11.125 C 12.269531 -12.101562 11.847656 -12.894531 11.234375 -13.5 C 10.628906 -14.113281 9.8125 -14.421875 8.78125 -14.421875 C 7.3125 -14.421875 6.15625 -13.894531 5.3125 -12.84375 C 4.476562 -11.800781 4.0625 -10.269531 4.0625 -8.25 C 4.0625 -6.195312 4.453125 -4.628906 5.234375 -3.546875 C 6.023438 -2.460938 7.15625 -1.921875 8.625 -1.921875 C 9.820312 -1.921875 10.753906 -2.28125 11.421875 -3 C 12.097656 -3.726562 12.53125 -4.722656 12.71875 -5.984375 L 15.46875 -5.640625 C 15.175781 -3.742188 14.414062 -2.269531 13.1875 -1.21875 C 11.957031 -0.175781 10.4375 0.34375 8.625 0.34375 C 6.300781 0.34375 4.488281 -0.414062 3.1875 -1.9375 C 1.882812 -3.457031 1.234375 -5.601562 1.234375 -8.375 C 1.234375 -10.976562 1.921875 -13.015625 3.296875 -14.484375 C 4.671875 -15.953125 6.554688 -16.6875 8.953125 -16.6875 Z M 8.953125 -16.6875 "/></g></g></g><g fill="#f1f1f1" fill-opacity="1"><g transform="translate(279.401218, 194.249987)"><g><path d="M 4.875 -19.40625 L 2.109375 -19.40625 L 2.109375 -22.546875 L 4.875 -22.546875 Z M 4.875 0 L 2.109375 0 L 2.109375 -16.3125 L 4.875 -16.3125 Z M 4.875 0 "/></g></g></g></svg>