<svg xmlns="http://www.w3.org/2000/svg" xmlns:xlink="http://www.w3.org/1999/xlink" width="500" zoomAndPan="magnify" viewBox="0 0 375 374.999991" height="500" preserveAspectRatio="xMidYMid meet" version="1.0"><defs><clipPath id="fc632a5c7c"><path d="M 314 168.675781 L 335 168.675781 L 335 206 L 314 206 Z M 314 168.675781 " clip-rule="nonzero"/></clipPath><clipPath id="6e18be6fc5"><path d="M 323 168.675781 L 344.625 168.675781 L 344.625 206.175781 L 323 206.175781 Z M 323 168.675781 " clip-rule="nonzero"/></clipPath></defs><rect x="-37.5" width="450" fill="#ffffff" y="-37.499999" height="449.999989" fill-opacity="1"/><rect x="-37.5" width="450" fill="#ffffff" y="-37.499999" height="449.999989" fill-opacity="1"/><rect x="-37.5" width="450" fill="#050505" y="-37.499999" height="449.999989" fill-opacity="1"/><path fill="#80746e" d="M 47.242188 193.570312 L 53.929688 176.75 L 62.386719 176.75 L 62.386719 177.90625 C 61.75 177.90625 61.226562 177.972656 60.820312 178.105469 C 60.4375 178.222656 60.136719 178.445312 59.925781 178.769531 C 59.710938 179.097656 59.566406 179.550781 59.488281 180.125 C 59.433594 180.683594 59.402344 181.394531 59.402344 182.261719 L 59.402344 193.453125 C 59.402344 194.414062 59.441406 195.175781 59.519531 195.730469 C 59.597656 196.289062 59.75 196.722656 59.980469 197.03125 C 60.214844 197.335938 60.542969 197.539062 60.964844 197.636719 C 61.410156 197.730469 61.988281 197.789062 62.703125 197.808594 L 62.703125 198.960938 L 51.816406 198.960938 L 51.816406 197.808594 C 52.53125 197.789062 53.101562 197.730469 53.523438 197.636719 C 53.96875 197.519531 54.308594 197.320312 54.539062 197.03125 C 54.789062 196.742188 54.953125 196.335938 55.03125 195.820312 C 55.109375 195.28125 55.148438 194.558594 55.148438 193.65625 L 55.148438 180.15625 L 55 180.15625 L 47.214844 199.25 L 45.070312 199.25 L 37.019531 180.15625 L 36.90625 180.15625 L 36.90625 193.453125 C 36.90625 194.414062 36.945312 195.175781 37.019531 195.730469 C 37.097656 196.289062 37.253906 196.722656 37.484375 197.03125 C 37.714844 197.335938 38.042969 197.539062 38.46875 197.636719 C 38.914062 197.730469 39.492188 197.789062 40.207031 197.808594 L 40.207031 198.960938 L 31.289062 198.960938 L 31.289062 197.808594 C 32 197.789062 32.582031 197.730469 33.023438 197.636719 C 33.46875 197.519531 33.804688 197.320312 34.039062 197.03125 C 34.289062 196.742188 34.453125 196.335938 34.53125 195.820312 C 34.609375 195.28125 34.644531 194.558594 34.644531 193.65625 L 34.644531 182.058594 C 34.644531 181.25 34.609375 180.578125 34.53125 180.039062 C 34.453125 179.5 34.308594 179.078125 34.097656 178.769531 C 33.882812 178.445312 33.574219 178.222656 33.167969 178.105469 C 32.785156 177.972656 32.261719 177.90625 31.605469 177.90625 L 31.605469 176.75 L 40.378906 176.75 L 47.125 193.570312 Z M 70.351562 183.386719 C 71.507812 183.386719 72.601562 183.585938 73.621094 183.992188 C 74.664062 184.375 75.574219 184.914062 76.34375 185.605469 C 77.136719 186.300781 77.753906 187.125 78.199219 188.085938 C 78.660156 189.03125 78.894531 190.066406 78.894531 191.203125 C 78.894531 192.375 78.660156 193.453125 78.199219 194.433594 C 77.753906 195.414062 77.136719 196.261719 76.34375 196.972656 C 75.574219 197.683594 74.664062 198.242188 73.621094 198.644531 C 72.601562 199.050781 71.507812 199.25 70.351562 199.25 C 69.210938 199.25 68.132812 199.058594 67.109375 198.675781 C 66.085938 198.269531 65.1875 197.710938 64.414062 197 C 63.644531 196.289062 63.035156 195.445312 62.589844 194.460938 C 62.148438 193.460938 61.925781 192.375 61.925781 191.203125 C 61.925781 190.066406 62.148438 189.019531 62.589844 188.058594 C 63.035156 187.097656 63.644531 186.269531 64.414062 185.578125 C 65.1875 184.886719 66.085938 184.347656 67.109375 183.960938 C 68.132812 183.578125 69.210938 183.386719 70.351562 183.386719 Z M 70.351562 185.058594 C 69.773438 185.058594 69.242188 185.210938 68.757812 185.519531 C 68.277344 185.808594 67.859375 186.222656 67.511719 186.761719 C 67.183594 187.300781 66.925781 187.953125 66.730469 188.722656 C 66.558594 189.472656 66.472656 190.308594 66.472656 191.230469 C 66.472656 192.195312 66.558594 193.058594 66.730469 193.828125 C 66.925781 194.597656 67.183594 195.25 67.511719 195.789062 C 67.859375 196.328125 68.265625 196.75 68.730469 197.058594 C 69.210938 197.347656 69.753906 197.492188 70.351562 197.492188 C 70.949219 197.492188 71.488281 197.347656 71.972656 197.058594 C 72.472656 196.75 72.898438 196.328125 73.246094 195.789062 C 73.59375 195.230469 73.863281 194.566406 74.058594 193.800781 C 74.25 193.03125 74.347656 192.175781 74.347656 191.230469 C 74.347656 190.308594 74.25 189.472656 74.058594 188.722656 C 73.863281 187.972656 73.59375 187.328125 73.246094 186.789062 C 72.898438 186.230469 72.472656 185.808594 71.972656 185.519531 C 71.488281 185.210938 70.949219 185.058594 70.351562 185.058594 Z M 85.382812 194.261719 C 85.382812 195.050781 85.402344 195.675781 85.441406 196.136719 C 85.5 196.578125 85.605469 196.925781 85.761719 197.175781 C 85.933594 197.40625 86.183594 197.558594 86.511719 197.636719 C 86.859375 197.710938 87.324219 197.769531 87.902344 197.808594 L 87.902344 198.960938 L 78.78125 198.960938 L 78.78125 197.808594 C 79.339844 197.769531 79.785156 197.710938 80.113281 197.636719 C 80.460938 197.558594 80.722656 197.40625 80.894531 197.175781 C 81.089844 196.945312 81.214844 196.617188 81.273438 196.195312 C 81.328125 195.769531 81.359375 195.195312 81.359375 194.460938 L 81.359375 190.855469 C 81.359375 189.722656 81.339844 188.808594 81.300781 188.117188 C 81.261719 187.40625 81.214844 186.925781 81.15625 186.675781 C 81.097656 186.425781 81.019531 186.222656 80.925781 186.070312 C 80.828125 185.894531 80.683594 185.769531 80.488281 185.695312 C 80.296875 185.597656 80.054688 185.539062 79.765625 185.519531 C 79.476562 185.480469 79.109375 185.460938 78.664062 185.460938 L 78.664062 184.480469 L 84.253906 183.386719 L 84.628906 185.925781 L 84.746094 185.925781 C 85.382812 185.117188 86.136719 184.492188 87.003906 184.050781 C 87.875 183.605469 88.828125 183.386719 89.871094 183.386719 C 91.105469 183.386719 92.101562 183.558594 92.855469 183.90625 C 93.625 184.230469 94.3125 184.789062 94.910156 185.578125 C 95.238281 186.019531 95.527344 186.597656 95.777344 187.308594 C 96.027344 188 96.15625 188.960938 96.15625 190.195312 L 96.15625 194.261719 C 96.15625 195.050781 96.175781 195.675781 96.210938 196.136719 C 96.269531 196.578125 96.375 196.925781 96.53125 197.175781 C 96.703125 197.40625 96.957031 197.558594 97.285156 197.636719 C 97.613281 197.710938 98.054688 197.769531 98.617188 197.808594 L 98.617188 198.960938 L 89.554688 198.960938 L 89.554688 197.808594 C 90.132812 197.789062 90.585938 197.742188 90.914062 197.664062 C 91.261719 197.566406 91.523438 197.40625 91.695312 197.175781 C 91.871094 196.945312 91.984375 196.617188 92.042969 196.195312 C 92.101562 195.75 92.128906 195.175781 92.128906 194.460938 L 92.128906 190.539062 C 92.128906 189.558594 92.070312 188.730469 91.957031 188.058594 C 91.839844 187.386719 91.648438 186.847656 91.378906 186.445312 C 91.125 186.019531 90.789062 185.722656 90.363281 185.550781 C 89.9375 185.355469 89.40625 185.261719 88.769531 185.261719 C 88.152344 185.261719 87.621094 185.433594 87.179688 185.78125 C 86.734375 186.125 86.347656 186.605469 86.019531 187.222656 C 85.847656 187.570312 85.691406 188.019531 85.558594 188.578125 C 85.441406 189.117188 85.382812 189.683594 85.382812 190.28125 Z M 114.113281 194 L 117.875 184.394531 C 118.242188 183.453125 118.53125 182.683594 118.746094 182.085938 C 118.976562 181.492188 119.148438 181 119.265625 180.617188 C 119.382812 180.230469 119.460938 179.925781 119.496094 179.695312 C 119.535156 179.460938 119.554688 179.242188 119.554688 179.03125 C 119.554688 178.570312 119.382812 178.269531 119.035156 178.136719 C 118.6875 177.980469 117.992188 177.90625 116.949219 177.90625 L 116.949219 176.75 L 125.171875 176.75 L 125.171875 177.90625 C 123.570312 177.90625 122.460938 178.683594 121.84375 180.242188 L 114.226562 199.25 L 112.085938 199.25 L 105.164062 182.40625 C 104.777344 181.5 104.429688 180.761719 104.121094 180.183594 C 103.8125 179.605469 103.484375 179.15625 103.136719 178.828125 C 102.789062 178.480469 102.40625 178.25 101.980469 178.136719 C 101.574219 178 101.09375 177.933594 100.53125 177.933594 L 100.53125 176.75 L 111.476562 176.75 L 111.476562 177.933594 C 110.976562 177.953125 110.550781 177.980469 110.203125 178.019531 C 109.875 178.058594 109.613281 178.125 109.421875 178.222656 C 109.226562 178.300781 109.09375 178.414062 109.015625 178.570312 C 108.9375 178.703125 108.898438 178.875 108.898438 179.085938 C 108.898438 179.355469 108.949219 179.675781 109.042969 180.039062 C 109.140625 180.40625 109.285156 180.847656 109.480469 181.367188 Z M 129.71875 194.230469 C 129.71875 195 129.75 195.617188 129.808594 196.078125 C 129.863281 196.539062 129.980469 196.894531 130.15625 197.144531 C 130.328125 197.394531 130.578125 197.566406 130.90625 197.664062 C 131.234375 197.742188 131.679688 197.789062 132.238281 197.808594 L 132.238281 198.960938 L 123.117188 198.960938 L 123.117188 197.808594 C 123.660156 197.789062 124.09375 197.730469 124.421875 197.636719 C 124.769531 197.519531 125.03125 197.347656 125.203125 197.117188 C 125.394531 196.867188 125.523438 196.53125 125.578125 196.105469 C 125.65625 195.664062 125.695312 195.105469 125.695312 194.433594 L 125.695312 190.886719 C 125.695312 189.769531 125.675781 188.855469 125.636719 188.144531 C 125.597656 187.414062 125.550781 186.914062 125.492188 186.644531 C 125.394531 186.164062 125.175781 185.847656 124.828125 185.695312 C 124.5 185.539062 123.890625 185.460938 123.003906 185.460938 L 123.003906 184.480469 L 129.71875 183.386719 Z M 125.464844 177.269531 C 125.464844 176.636719 125.675781 176.105469 126.101562 175.683594 C 126.542969 175.242188 127.074219 175.019531 127.691406 175.019531 C 128.332031 175.019531 128.859375 175.242188 129.285156 175.683594 C 129.730469 176.105469 129.953125 176.636719 129.953125 177.269531 C 129.953125 177.886719 129.730469 178.414062 129.285156 178.855469 C 128.859375 179.28125 128.332031 179.492188 127.691406 179.492188 C 127.074219 179.492188 126.542969 179.28125 126.101562 178.855469 C 125.675781 178.414062 125.464844 177.886719 125.464844 177.269531 Z M 146.351562 196.28125 C 144.59375 198.261719 142.402344 199.25 139.777344 199.25 C 138.582031 199.25 137.488281 199.066406 136.503906 198.703125 C 135.539062 198.316406 134.710938 197.789062 134.015625 197.117188 C 133.320312 196.425781 132.78125 195.605469 132.394531 194.664062 C 132.007812 193.722656 131.816406 192.675781 131.816406 191.519531 C 131.816406 190.328125 132.015625 189.242188 132.421875 188.261719 C 132.828125 187.261719 133.398438 186.40625 134.132812 185.695312 C 134.882812 184.960938 135.761719 184.394531 136.765625 183.992188 C 137.789062 183.585938 138.910156 183.386719 140.125 183.386719 C 142.171875 183.386719 143.761719 183.933594 144.902344 185.03125 C 146.042969 186.125 146.609375 187.664062 146.609375 189.644531 C 146.609375 189.953125 146.5625 190.144531 146.464844 190.222656 C 146.371094 190.28125 146.097656 190.308594 145.65625 190.308594 L 136.332031 190.308594 C 136.253906 190.480469 136.214844 190.800781 136.214844 191.261719 C 136.214844 193.144531 136.621094 194.636719 137.433594 195.730469 C 138.261719 196.828125 139.382812 197.375 140.789062 197.375 C 141.601562 197.375 142.402344 197.191406 143.195312 196.828125 C 144.003906 196.460938 144.785156 195.945312 145.539062 195.269531 Z M 140.734375 188.695312 C 141.503906 188.695312 141.996094 188.65625 142.210938 188.578125 C 142.441406 188.480469 142.558594 188.269531 142.558594 187.945312 C 142.558594 187.097656 142.316406 186.40625 141.832031 185.867188 C 141.351562 185.328125 140.742188 185.058594 140.007812 185.058594 C 139.179688 185.058594 138.4375 185.40625 137.78125 186.097656 C 137.140625 186.769531 136.726562 187.636719 136.535156 188.695312 Z M 159.089844 188.40625 C 159.089844 187.636719 159.070312 187.03125 159.03125 186.585938 C 158.992188 186.125 158.886719 185.78125 158.714844 185.550781 C 158.539062 185.300781 158.277344 185.136719 157.929688 185.058594 C 157.601562 184.960938 157.148438 184.886719 156.570312 184.828125 L 156.570312 183.675781 L 163.113281 183.675781 L 163.113281 192.414062 C 163.113281 193.585938 163.125 194.511719 163.144531 195.183594 C 163.183594 195.835938 163.238281 196.328125 163.316406 196.65625 C 163.375 196.90625 163.441406 197.105469 163.519531 197.261719 C 163.597656 197.394531 163.722656 197.511719 163.894531 197.605469 C 164.070312 197.683594 164.300781 197.742188 164.589844 197.78125 C 164.898438 197.800781 165.296875 197.808594 165.777344 197.808594 L 165.777344 198.933594 L 160.015625 199.28125 L 159.699219 196.710938 L 159.582031 196.710938 C 159.078125 197.519531 158.375 198.144531 157.46875 198.585938 C 156.5625 199.03125 155.546875 199.25 154.425781 199.25 C 152.363281 199.25 150.789062 198.519531 149.707031 197.058594 C 148.878906 195.945312 148.460938 194.355469 148.460938 192.300781 L 148.460938 188.40625 C 148.460938 187.617188 148.445312 187 148.40625 186.558594 C 148.367188 186.097656 148.261719 185.75 148.085938 185.519531 C 147.933594 185.289062 147.691406 185.136719 147.363281 185.058594 C 147.035156 184.960938 146.582031 184.886719 146 184.828125 L 146 183.675781 L 152.488281 183.675781 L 152.488281 191.835938 C 152.488281 193.78125 152.730469 195.195312 153.210938 196.078125 C 153.695312 196.945312 154.464844 197.375 155.527344 197.375 C 156.667969 197.375 157.546875 196.855469 158.164062 195.820312 C 158.78125 194.820312 159.089844 193.347656 159.089844 191.40625 Z M 175.882812 187.308594 C 176.289062 186.789062 176.558594 186.425781 176.695312 186.210938 C 176.828125 186 176.898438 185.789062 176.898438 185.578125 C 176.898438 185.308594 176.78125 185.117188 176.550781 185 C 176.335938 184.886719 175.96875 184.828125 175.449219 184.828125 L 175.449219 183.675781 L 182.109375 183.675781 L 182.109375 184.828125 C 181.742188 184.847656 181.414062 184.886719 181.125 184.945312 C 180.835938 185 180.546875 185.117188 180.253906 185.289062 C 179.964844 185.445312 179.667969 185.664062 179.359375 185.953125 C 179.046875 186.242188 178.691406 186.617188 178.285156 187.078125 L 175.332031 190.480469 L 179.910156 196.335938 C 180.351562 196.914062 180.785156 197.308594 181.210938 197.519531 C 181.636719 197.710938 182.167969 197.808594 182.804688 197.808594 L 182.804688 198.960938 L 173.59375 198.960938 L 173.59375 197.808594 C 174.15625 197.808594 174.542969 197.761719 174.753906 197.664062 C 174.984375 197.566406 175.101562 197.386719 175.101562 197.117188 C 175.101562 196.90625 175.035156 196.683594 174.898438 196.453125 C 174.761719 196.203125 174.5625 195.886719 174.289062 195.5 L 172.609375 193.195312 L 171.335938 194.722656 C 171.007812 195.125 170.75 195.453125 170.554688 195.703125 C 170.363281 195.953125 170.21875 196.15625 170.121094 196.308594 C 170.023438 196.460938 169.957031 196.585938 169.917969 196.683594 C 169.898438 196.761719 169.890625 196.835938 169.890625 196.914062 C 169.890625 197.242188 170.023438 197.472656 170.292969 197.605469 C 170.585938 197.742188 171.039062 197.808594 171.65625 197.808594 L 171.65625 198.960938 L 164.386719 198.960938 L 164.386719 197.808594 C 165.003906 197.808594 165.605469 197.722656 166.183594 197.550781 C 166.761719 197.355469 167.214844 197.070312 167.542969 196.683594 L 171.570312 191.980469 L 166.734375 185.867188 C 166.367188 185.40625 166.039062 185.117188 165.75 185 C 165.476562 184.886719 165.101562 184.828125 164.621094 184.828125 L 164.621094 183.675781 L 173.449219 183.675781 L 173.449219 184.828125 C 172.464844 184.828125 171.972656 185.097656 171.972656 185.636719 C 171.972656 185.828125 172.082031 186.078125 172.292969 186.386719 L 174.347656 189.269531 Z M 198.855469 199.25 C 197.117188 199.25 195.542969 199 194.136719 198.5 C 192.746094 197.980469 191.558594 197.25 190.574219 196.308594 C 189.609375 195.347656 188.855469 194.191406 188.316406 192.847656 C 187.792969 191.480469 187.535156 189.953125 187.535156 188.261719 C 187.535156 186.511719 187.8125 184.914062 188.375 183.472656 C 188.953125 182.011719 189.753906 180.761719 190.777344 179.722656 C 191.800781 178.683594 193.023438 177.886719 194.453125 177.328125 C 195.882812 176.75 197.464844 176.460938 199.203125 176.460938 C 200.398438 176.460938 201.539062 176.625 202.621094 176.953125 C 203.699219 177.28125 204.867188 177.808594 206.125 178.539062 L 206.671875 176.75 L 207.714844 176.75 L 207.714844 184.050781 L 206.269531 184.050781 C 205.882812 182.242188 205.097656 180.835938 203.921875 179.835938 C 202.765625 178.835938 201.304688 178.335938 199.550781 178.335938 C 197.332031 178.335938 195.601562 179.195312 194.367188 180.90625 C 193.152344 182.597656 192.542969 184.972656 192.542969 188.03125 C 192.542969 191.03125 193.140625 193.328125 194.339844 194.925781 C 195.535156 196.519531 197.273438 197.320312 199.550781 197.320312 C 201.191406 197.320312 202.464844 196.90625 203.371094 196.078125 C 204.300781 195.230469 204.761719 194.070312 204.761719 192.585938 C 204.761719 191.703125 204.53125 191.058594 204.066406 190.65625 C 203.605469 190.230469 202.820312 189.972656 201.722656 189.875 L 201.722656 188.722656 L 211.101562 188.722656 L 211.101562 189.875 C 210.15625 189.875 209.5 190.085938 209.132812 190.511719 C 208.769531 190.914062 208.585938 191.65625 208.585938 192.730469 L 208.585938 196.570312 C 208.160156 196.570312 207.800781 196.585938 207.511719 196.625 C 207.222656 196.644531 206.933594 196.703125 206.644531 196.800781 C 206.375 196.875 206.066406 197.011719 205.71875 197.203125 C 205.371094 197.394531 204.9375 197.644531 204.414062 197.953125 C 202.929688 198.820312 201.074219 199.25 198.855469 199.25 Z M 216.980469 194.492188 C 216.980469 195.242188 217.011719 195.835938 217.066406 196.28125 C 217.144531 196.703125 217.289062 197.03125 217.503906 197.261719 C 217.714844 197.492188 218.023438 197.644531 218.429688 197.722656 C 218.835938 197.78125 219.375 197.808594 220.050781 197.808594 L 220.050781 198.960938 L 210.378906 198.960938 L 210.378906 197.808594 C 210.957031 197.769531 211.421875 197.710938 211.769531 197.636719 C 212.117188 197.558594 212.378906 197.40625 212.550781 197.175781 C 212.726562 196.945312 212.832031 196.617188 212.871094 196.195312 C 212.925781 195.75 212.957031 195.164062 212.957031 194.433594 L 212.957031 190.914062 C 212.957031 189.722656 212.925781 188.769531 212.871094 188.058594 C 212.8125 187.347656 212.6875 186.800781 212.492188 186.414062 C 212.300781 186.03125 212.019531 185.78125 211.652344 185.664062 C 211.304688 185.53125 210.84375 185.460938 210.265625 185.460938 L 210.265625 184.453125 L 216.054688 183.386719 L 216.519531 186.703125 L 216.632812 186.703125 C 217.15625 185.683594 217.839844 184.875 218.691406 184.28125 C 219.539062 183.683594 220.4375 183.386719 221.382812 183.386719 C 222.113281 183.386719 222.714844 183.570312 223.179688 183.933594 C 223.640625 184.300781 223.871094 184.761719 223.871094 185.320312 C 223.871094 185.933594 223.6875 186.453125 223.324219 186.875 C 222.976562 187.300781 222.492188 187.511719 221.875 187.511719 C 221.585938 187.511719 221.324219 187.453125 221.09375 187.335938 C 220.863281 187.222656 220.648438 187.097656 220.457031 186.960938 C 220.28125 186.808594 220.097656 186.675781 219.90625 186.558594 C 219.730469 186.425781 219.546875 186.355469 219.355469 186.355469 C 218.988281 186.355469 218.640625 186.597656 218.3125 187.078125 C 217.984375 187.558594 217.714844 188.203125 217.503906 189.011719 C 217.347656 189.585938 217.222656 190.242188 217.125 190.972656 C 217.027344 191.683594 216.980469 192.394531 216.980469 193.105469 Z M 229.34375 194.230469 C 229.34375 195 229.375 195.617188 229.433594 196.078125 C 229.488281 196.539062 229.605469 196.894531 229.78125 197.144531 C 229.953125 197.394531 230.207031 197.566406 230.53125 197.664062 C 230.859375 197.742188 231.304688 197.789062 231.863281 197.808594 L 231.863281 198.960938 L 222.742188 198.960938 L 222.742188 197.808594 C 223.285156 197.789062 223.71875 197.730469 224.046875 197.636719 C 224.394531 197.519531 224.65625 197.347656 224.828125 197.117188 C 225.023438 196.867188 225.148438 196.53125 225.203125 196.105469 C 225.28125 195.664062 225.320312 195.105469 225.320312 194.433594 L 225.320312 190.886719 C 225.320312 189.769531 225.300781 188.855469 225.261719 188.144531 C 225.226562 187.414062 225.175781 186.914062 225.117188 186.644531 C 225.023438 186.164062 224.800781 185.847656 224.453125 185.695312 C 224.125 185.539062 223.515625 185.460938 222.628906 185.460938 L 222.628906 184.480469 L 229.34375 183.386719 Z M 225.089844 177.269531 C 225.089844 176.636719 225.300781 176.105469 225.726562 175.683594 C 226.171875 175.242188 226.703125 175.019531 227.320312 175.019531 C 227.957031 175.019531 228.488281 175.242188 228.910156 175.683594 C 229.355469 176.105469 229.578125 176.636719 229.578125 177.269531 C 229.578125 177.886719 229.355469 178.414062 228.910156 178.855469 C 228.488281 179.28125 227.957031 179.492188 227.320312 179.492188 C 226.703125 179.492188 226.171875 179.28125 225.726562 178.855469 C 225.300781 178.414062 225.089844 177.886719 225.089844 177.269531 Z M 237.808594 194.203125 C 237.808594 195.011719 237.828125 195.644531 237.867188 196.105469 C 237.90625 196.570312 238.011719 196.925781 238.1875 197.175781 C 238.359375 197.40625 238.609375 197.558594 238.941406 197.636719 C 239.269531 197.710938 239.722656 197.769531 240.300781 197.808594 L 240.300781 198.960938 L 231.152344 198.960938 L 231.152344 197.808594 C 231.730469 197.769531 232.191406 197.710938 232.539062 197.636719 C 232.886719 197.558594 233.148438 197.40625 233.324219 197.175781 C 233.496094 196.945312 233.613281 196.617188 233.667969 196.195312 C 233.726562 195.75 233.757812 195.164062 233.757812 194.433594 L 233.757812 190.855469 C 233.757812 189.761719 233.738281 188.847656 233.699219 188.117188 C 233.679688 187.386719 233.628906 186.886719 233.554688 186.617188 C 233.496094 186.367188 233.417969 186.175781 233.324219 186.039062 C 233.246094 185.886719 233.109375 185.769531 232.917969 185.695312 C 232.742188 185.597656 232.511719 185.539062 232.222656 185.519531 C 231.933594 185.480469 231.554688 185.460938 231.09375 185.460938 L 231.09375 184.480469 L 236.679688 183.386719 L 237.027344 185.894531 L 237.203125 185.894531 C 238.011719 184.992188 238.824219 184.347656 239.632812 183.960938 C 240.464844 183.578125 241.417969 183.386719 242.5 183.386719 C 243.773438 183.386719 244.828125 183.605469 245.65625 184.050781 C 246.488281 184.492188 247.117188 185.125 247.539062 185.953125 L 247.65625 185.953125 C 248.351562 185.144531 249.179688 184.519531 250.144531 184.078125 C 251.109375 183.617188 252.144531 183.386719 253.242188 183.386719 C 254.402344 183.386719 255.40625 183.53125 256.253906 183.820312 C 257.125 184.105469 257.800781 184.519531 258.28125 185.058594 C 258.667969 185.5 258.949219 186.078125 259.121094 186.789062 C 259.3125 187.5 259.410156 188.492188 259.410156 189.761719 L 259.410156 194.203125 C 259.410156 194.992188 259.429688 195.617188 259.46875 196.078125 C 259.527344 196.539062 259.644531 196.894531 259.816406 197.144531 C 259.992188 197.394531 260.242188 197.558594 260.570312 197.636719 C 260.898438 197.710938 261.351562 197.769531 261.929688 197.808594 L 261.929688 198.960938 L 252.78125 198.960938 L 252.78125 197.808594 C 253.359375 197.789062 253.8125 197.742188 254.140625 197.664062 C 254.488281 197.566406 254.75 197.40625 254.921875 197.175781 C 255.117188 196.925781 255.230469 196.585938 255.269531 196.164062 C 255.328125 195.742188 255.355469 195.164062 255.355469 194.433594 L 255.355469 190.65625 C 255.355469 189.65625 255.300781 188.808594 255.183594 188.117188 C 255.066406 187.425781 254.882812 186.867188 254.632812 186.445312 C 254.382812 186.019531 254.042969 185.722656 253.621094 185.550781 C 253.214844 185.355469 252.710938 185.261719 252.113281 185.261719 C 251.4375 185.261719 250.878906 185.425781 250.433594 185.75 C 250.011719 186.078125 249.652344 186.5 249.363281 187.019531 C 248.859375 187.925781 248.609375 189.050781 248.609375 190.394531 L 248.609375 194.203125 C 248.609375 194.992188 248.628906 195.617188 248.667969 196.078125 C 248.707031 196.539062 248.8125 196.894531 248.988281 197.144531 C 249.160156 197.394531 249.410156 197.558594 249.738281 197.636719 C 250.085938 197.710938 250.5625 197.769531 251.160156 197.808594 L 251.160156 198.960938 L 241.980469 198.960938 L 241.980469 197.808594 C 242.558594 197.769531 243.011719 197.710938 243.339844 197.636719 C 243.6875 197.558594 243.949219 197.40625 244.121094 197.175781 C 244.316406 196.945312 244.429688 196.617188 244.46875 196.195312 C 244.527344 195.75 244.558594 195.164062 244.558594 194.433594 L 244.558594 190.65625 C 244.558594 189.65625 244.5 188.808594 244.382812 188.117188 C 244.265625 187.425781 244.074219 186.867188 243.804688 186.445312 C 243.554688 186.019531 243.214844 185.722656 242.789062 185.550781 C 242.367188 185.355469 241.835938 185.261719 241.199219 185.261719 C 240.5625 185.261719 240.03125 185.414062 239.605469 185.722656 C 239.199219 186.03125 238.863281 186.445312 238.59375 186.960938 C 238.339844 187.425781 238.148438 187.953125 238.011719 188.550781 C 237.878906 189.144531 237.808594 189.761719 237.808594 190.394531 Z M 269.847656 183.386719 C 271.007812 183.386719 272.097656 183.585938 273.121094 183.992188 C 274.164062 184.375 275.070312 184.914062 275.84375 185.605469 C 276.632812 186.300781 277.25 187.125 277.695312 188.085938 C 278.160156 189.03125 278.390625 190.066406 278.390625 191.203125 C 278.390625 192.375 278.160156 193.453125 277.695312 194.433594 C 277.25 195.414062 276.632812 196.261719 275.84375 196.972656 C 275.070312 197.683594 274.164062 198.242188 273.121094 198.644531 C 272.097656 199.050781 271.007812 199.25 269.847656 199.25 C 268.707031 199.25 267.628906 199.058594 266.605469 198.675781 C 265.582031 198.269531 264.683594 197.710938 263.914062 197 C 263.140625 196.289062 262.53125 195.445312 262.089844 194.460938 C 261.644531 193.460938 261.421875 192.375 261.421875 191.203125 C 261.421875 190.066406 261.644531 189.019531 262.089844 188.058594 C 262.53125 187.097656 263.140625 186.269531 263.914062 185.578125 C 264.683594 184.886719 265.582031 184.347656 266.605469 183.960938 C 267.628906 183.578125 268.707031 183.386719 269.847656 183.386719 Z M 269.847656 185.058594 C 269.269531 185.058594 268.738281 185.210938 268.253906 185.519531 C 267.773438 185.808594 267.359375 186.222656 267.011719 186.761719 C 266.683594 187.300781 266.421875 187.953125 266.230469 188.722656 C 266.054688 189.472656 265.96875 190.308594 265.96875 191.230469 C 265.96875 192.195312 266.054688 193.058594 266.230469 193.828125 C 266.421875 194.597656 266.683594 195.25 267.011719 195.789062 C 267.359375 196.328125 267.761719 196.75 268.226562 197.058594 C 268.707031 197.347656 269.25 197.492188 269.847656 197.492188 C 270.445312 197.492188 270.988281 197.347656 271.46875 197.058594 C 271.972656 196.75 272.394531 196.328125 272.742188 195.789062 C 273.089844 195.230469 273.363281 194.566406 273.554688 193.800781 C 273.746094 193.03125 273.84375 192.175781 273.84375 191.230469 C 273.84375 190.308594 273.746094 189.472656 273.554688 188.722656 C 273.363281 187.972656 273.089844 187.328125 272.742188 186.789062 C 272.394531 186.230469 271.972656 185.808594 271.46875 185.519531 C 270.988281 185.210938 270.445312 185.058594 269.847656 185.058594 Z M 284.878906 194.230469 C 284.878906 195 284.910156 195.617188 284.96875 196.078125 C 285.023438 196.539062 285.140625 196.894531 285.316406 197.144531 C 285.488281 197.394531 285.738281 197.566406 286.066406 197.664062 C 286.394531 197.742188 286.839844 197.789062 287.398438 197.808594 L 287.398438 198.960938 L 278.277344 198.960938 L 278.277344 197.808594 C 278.820312 197.789062 279.253906 197.730469 279.582031 197.636719 C 279.929688 197.519531 280.191406 197.347656 280.363281 197.117188 C 280.554688 196.867188 280.683594 196.53125 280.738281 196.105469 C 280.816406 195.664062 280.855469 195.105469 280.855469 194.433594 L 280.855469 190.886719 C 280.855469 189.769531 280.835938 188.855469 280.796875 188.144531 C 280.757812 187.414062 280.710938 186.914062 280.652344 186.644531 C 280.554688 186.164062 280.335938 185.847656 279.988281 185.695312 C 279.660156 185.539062 279.050781 185.460938 278.164062 185.460938 L 278.164062 184.480469 L 284.878906 183.386719 Z M 280.625 177.269531 C 280.625 176.636719 280.835938 176.105469 281.261719 175.683594 C 281.707031 175.242188 282.234375 175.019531 282.851562 175.019531 C 283.492188 175.019531 284.023438 175.242188 284.445312 175.683594 C 284.890625 176.105469 285.113281 176.636719 285.113281 177.269531 C 285.113281 177.886719 284.890625 178.414062 284.445312 178.855469 C 284.023438 179.28125 283.492188 179.492188 282.851562 179.492188 C 282.234375 179.492188 281.707031 179.28125 281.261719 178.855469 C 280.835938 178.414062 280.625 177.886719 280.625 177.269531 Z M 293.34375 194.492188 C 293.34375 195.242188 293.375 195.835938 293.433594 196.28125 C 293.507812 196.703125 293.652344 197.03125 293.867188 197.261719 C 294.078125 197.492188 294.386719 197.644531 294.792969 197.722656 C 295.199219 197.78125 295.738281 197.808594 296.414062 197.808594 L 296.414062 198.960938 L 286.742188 198.960938 L 286.742188 197.808594 C 287.324219 197.769531 287.785156 197.710938 288.132812 197.636719 C 288.480469 197.558594 288.742188 197.40625 288.914062 197.175781 C 289.089844 196.945312 289.195312 196.617188 289.234375 196.195312 C 289.292969 195.75 289.320312 195.164062 289.320312 194.433594 L 289.320312 190.914062 C 289.320312 189.722656 289.292969 188.769531 289.234375 188.058594 C 289.175781 187.347656 289.050781 186.800781 288.855469 186.414062 C 288.664062 186.03125 288.382812 185.78125 288.019531 185.664062 C 287.671875 185.53125 287.207031 185.460938 286.628906 185.460938 L 286.628906 184.453125 L 292.417969 183.386719 L 292.882812 186.703125 L 292.996094 186.703125 C 293.519531 185.683594 294.203125 184.875 295.054688 184.28125 C 295.902344 183.683594 296.800781 183.386719 297.746094 183.386719 C 298.480469 183.386719 299.078125 183.570312 299.542969 183.933594 C 300.003906 184.300781 300.238281 184.761719 300.238281 185.320312 C 300.238281 185.933594 300.054688 186.453125 299.6875 186.875 C 299.339844 187.300781 298.855469 187.511719 298.238281 187.511719 C 297.949219 187.511719 297.6875 187.453125 297.457031 187.335938 C 297.226562 187.222656 297.011719 187.097656 296.820312 186.960938 C 296.644531 186.808594 296.460938 186.675781 296.269531 186.558594 C 296.097656 186.425781 295.914062 186.355469 295.71875 186.355469 C 295.351562 186.355469 295.003906 186.597656 294.675781 187.078125 C 294.347656 187.558594 294.078125 188.203125 293.867188 189.011719 C 293.710938 189.585938 293.585938 190.242188 293.488281 190.972656 C 293.394531 191.683594 293.34375 192.394531 293.34375 193.105469 Z M 313.734375 196.28125 C 311.976562 198.261719 309.789062 199.25 307.160156 199.25 C 305.964844 199.25 304.875 199.066406 303.890625 198.703125 C 302.925781 198.316406 302.09375 197.789062 301.398438 197.117188 C 300.703125 196.425781 300.164062 195.605469 299.777344 194.664062 C 299.394531 193.722656 299.199219 192.675781 299.199219 191.519531 C 299.199219 190.328125 299.402344 189.242188 299.808594 188.261719 C 300.210938 187.261719 300.78125 186.40625 301.515625 185.695312 C 302.269531 184.960938 303.148438 184.394531 304.148438 183.992188 C 305.171875 183.585938 306.292969 183.386719 307.507812 183.386719 C 309.554688 183.386719 311.148438 183.933594 312.285156 185.03125 C 313.425781 186.125 313.996094 187.664062 313.996094 189.644531 C 313.996094 189.953125 313.945312 190.144531 313.851562 190.222656 C 313.753906 190.28125 313.484375 190.308594 313.039062 190.308594 L 303.714844 190.308594 C 303.640625 190.480469 303.601562 190.800781 303.601562 191.261719 C 303.601562 193.144531 304.003906 194.636719 304.816406 195.730469 C 305.648438 196.828125 306.765625 197.375 308.175781 197.375 C 308.984375 197.375 309.789062 197.191406 310.578125 196.828125 C 311.390625 196.460938 312.171875 195.945312 312.921875 195.269531 Z M 308.117188 188.695312 C 308.890625 188.695312 309.382812 188.65625 309.59375 188.578125 C 309.824219 188.480469 309.941406 188.269531 309.941406 187.945312 C 309.941406 187.097656 309.699219 186.40625 309.21875 185.867188 C 308.734375 185.328125 308.128906 185.058594 307.394531 185.058594 C 306.5625 185.058594 305.820312 185.40625 305.164062 186.097656 C 304.527344 186.769531 304.113281 187.636719 303.917969 188.695312 Z M 308.117188 188.695312 " fill-opacity="1" fill-rule="nonzero"/><g clip-path="url(#fc632a5c7c)"><path stroke-linecap="butt" transform="matrix(1.44777, 0, 0, 1.442308, 30.418801, 168.674168)" fill="none" stroke-linejoin="miter" d="M 201.00087 4.375077 L 204.999476 4.375077 C 205.172156 4.375077 205.320552 4.437369 205.441967 4.559244 C 205.563382 4.681119 205.625439 4.827369 205.625439 5.000702 L 205.625439 20.998828 C 205.625439 21.172161 205.563382 21.32112 205.441967 21.442995 C 205.320552 21.56487 205.172156 21.624453 204.999476 21.624453 L 201.00087 21.624453 C 200.828191 21.624453 200.679795 21.56487 200.55838 21.442995 C 200.436964 21.32112 200.374908 21.172161 200.374908 20.998828 L 200.374908 5.000702 C 200.374908 4.827369 200.436964 4.681119 200.55838 4.559244 C 200.679795 4.437369 200.828191 4.375077 201.00087 4.375077 Z M 201.00087 4.375077 " stroke="#2c1810" stroke-width="0.75" stroke-opacity="1" stroke-miterlimit="4"/></g><g clip-path="url(#6e18be6fc5)"><path stroke-linecap="butt" transform="matrix(1.398439, -0.373297, 0.374711, 1.393162, 38.551672, 245.931723)" fill="none" stroke-linejoin="miter" d="M 206.86923 5.447137 L 211.170843 5.447359 C 211.343641 5.448798 211.489192 5.510229 211.613408 5.630433 C 211.734317 5.752554 211.795194 5.900648 211.794134 6.0714 L 211.794192 22.07312 C 211.795738 22.24457 211.733531 22.39333 211.61158 22.514867 C 211.489629 22.636403 211.341904 22.69776 211.168404 22.698936 L 206.866792 22.698715 C 206.696599 22.697974 206.548442 22.635844 206.426833 22.516339 C 206.303318 22.393519 206.242441 22.245425 206.244202 22.072057 L 206.243443 6.072954 C 206.241897 5.901503 206.304103 5.752743 206.426054 5.631207 C 206.548005 5.50967 206.695731 5.448314 206.86923 5.447137 Z M 206.86923 5.447137 " stroke="#2c1810" stroke-width="0.75" stroke-opacity="1" stroke-miterlimit="4"/></g></svg>