<svg width="614" height="377" viewBox="0 0 614 377" fill="none" xmlns="http://www.w3.org/2000/svg">
<g opacity="0.5">
<path opacity="0.5" d="M3.56 1.78C3.56 2.76 2.76 3.56 1.78 3.56C0.799999 3.56 0 2.76 0 1.78C0 0.799999 0.799999 0 1.78 0C2.76 0 3.56 0.799999 3.56 1.78Z" fill="white"/>
<path opacity="0.5" d="M17.0901 3.56C18.0731 3.56 18.8701 2.76307 18.8701 1.78C18.8701 0.796932 18.0731 0 17.0901 0C16.107 0 15.3101 0.796932 15.3101 1.78C15.3101 2.76307 16.107 3.56 17.0901 3.56Z" fill="white"/>
<path opacity="0.5" d="M32.3901 3.56C33.3732 3.56 34.1701 2.76307 34.1701 1.78C34.1701 0.796932 33.3732 0 32.3901 0C31.407 0 30.6101 0.796932 30.6101 1.78C30.6101 2.76307 31.407 3.56 32.3901 3.56Z" fill="white"/>
<path opacity="0.5" d="M49.4799 1.78C49.4799 2.76 48.6799 3.56 47.6999 3.56C46.7199 3.56 45.9199 2.76 45.9199 1.78C45.9199 0.799999 46.7199 0 47.6999 0C48.6799 0 49.4799 0.799999 49.4799 1.78Z" fill="white"/>
<path opacity="0.5" d="M63 3.56C63.983 3.56 64.78 2.76307 64.78 1.78C64.78 0.796932 63.983 0 63 0C62.0169 0 61.22 0.796932 61.22 1.78C61.22 2.76307 62.0169 3.56 63 3.56Z" fill="white"/>
<path opacity="0.5" d="M78.31 3.56C79.2931 3.56 80.09 2.76307 80.09 1.78C80.09 0.796932 79.2931 0 78.31 0C77.327 0 76.53 0.796932 76.53 1.78C76.53 2.76307 77.327 3.56 78.31 3.56Z" fill="white"/>
<path opacity="0.5" d="M93.6101 3.56C94.5931 3.56 95.3901 2.76307 95.3901 1.78C95.3901 0.796932 94.5931 0 93.6101 0C92.627 0 91.8301 0.796932 91.8301 1.78C91.8301 2.76307 92.627 3.56 93.6101 3.56Z" fill="white"/>
<path opacity="0.5" d="M108.92 3.56C109.903 3.56 110.7 2.76307 110.7 1.78C110.7 0.796932 109.903 0 108.92 0C107.937 0 107.14 0.796932 107.14 1.78C107.14 2.76307 107.937 3.56 108.92 3.56Z" fill="white"/>
<path opacity="0.5" d="M3.56 17.08C3.56 18.06 2.76 18.86 1.78 18.86C0.799999 18.86 0 18.06 0 17.08C0 16.1 0.799999 15.3 1.78 15.3C2.76 15.31 3.56 16.1 3.56 17.08Z" fill="white"/>
<path opacity="0.5" d="M17.0901 18.86C18.0731 18.86 18.8701 18.0631 18.8701 17.08C18.8701 16.0969 18.0731 15.3 17.0901 15.3C16.107 15.3 15.3101 16.0969 15.3101 17.08C15.3101 18.0631 16.107 18.86 17.0901 18.86Z" fill="white"/>
<path opacity="0.5" d="M32.3901 18.86C33.3732 18.86 34.1701 18.0631 34.1701 17.08C34.1701 16.0969 33.3732 15.3 32.3901 15.3C31.407 15.3 30.6101 16.0969 30.6101 17.08C30.6101 18.0631 31.407 18.86 32.3901 18.86Z" fill="white"/>
<path opacity="0.5" d="M49.4799 17.08C49.4799 18.06 48.6799 18.86 47.6999 18.86C46.7199 18.86 45.9199 18.06 45.9199 17.08C45.9199 16.1 46.7199 15.3 47.6999 15.3C48.6799 15.31 49.4799 16.1 49.4799 17.08Z" fill="white"/>
<path opacity="0.5" d="M63 18.86C63.983 18.86 64.78 18.0631 64.78 17.08C64.78 16.0969 63.983 15.3 63 15.3C62.0169 15.3 61.22 16.0969 61.22 17.08C61.22 18.0631 62.0169 18.86 63 18.86Z" fill="white"/>
<path opacity="0.5" d="M78.31 18.86C79.2931 18.86 80.09 18.0631 80.09 17.08C80.09 16.0969 79.2931 15.3 78.31 15.3C77.327 15.3 76.53 16.0969 76.53 17.08C76.53 18.0631 77.327 18.86 78.31 18.86Z" fill="white"/>
<path opacity="0.5" d="M93.6101 18.86C94.5931 18.86 95.3901 18.0631 95.3901 17.08C95.3901 16.0969 94.5931 15.3 93.6101 15.3C92.627 15.3 91.8301 16.0969 91.8301 17.08C91.8301 18.0631 92.627 18.86 93.6101 18.86Z" fill="white"/>
<path opacity="0.5" d="M108.92 18.86C109.903 18.86 110.7 18.0631 110.7 17.08C110.7 16.0969 109.903 15.3 108.92 15.3C107.937 15.3 107.14 16.0969 107.14 17.08C107.14 18.0631 107.937 18.86 108.92 18.86Z" fill="white"/>
<path opacity="0.5" d="M3.56 32.39C3.56 33.37 2.76 34.17 1.78 34.17C0.799999 34.17 0 33.37 0 32.39C0 31.41 0.799999 30.61 1.78 30.61C2.76 30.61 3.56 31.41 3.56 32.39Z" fill="white"/>
<path opacity="0.5" d="M17.0901 34.17C18.0731 34.17 18.8701 33.3731 18.8701 32.39C18.8701 31.4069 18.0731 30.61 17.0901 30.61C16.107 30.61 15.3101 31.4069 15.3101 32.39C15.3101 33.3731 16.107 34.17 17.0901 34.17Z" fill="white"/>
<path opacity="0.5" d="M32.3901 34.17C33.3732 34.17 34.1701 33.3731 34.1701 32.39C34.1701 31.4069 33.3732 30.61 32.3901 30.61C31.407 30.61 30.6101 31.4069 30.6101 32.39C30.6101 33.3731 31.407 34.17 32.3901 34.17Z" fill="white"/>
<path opacity="0.5" d="M49.4799 32.39C49.4799 33.37 48.6799 34.17 47.6999 34.17C46.7199 34.17 45.9199 33.37 45.9199 32.39C45.9199 31.41 46.7199 30.61 47.6999 30.61C48.6799 30.61 49.4799 31.41 49.4799 32.39Z" fill="white"/>
<path opacity="0.5" d="M63 34.17C63.983 34.17 64.78 33.3731 64.78 32.39C64.78 31.4069 63.983 30.61 63 30.61C62.0169 30.61 61.22 31.4069 61.22 32.39C61.22 33.3731 62.0169 34.17 63 34.17Z" fill="white"/>
<path opacity="0.5" d="M78.31 34.17C79.2931 34.17 80.09 33.3731 80.09 32.39C80.09 31.4069 79.2931 30.61 78.31 30.61C77.327 30.61 76.53 31.4069 76.53 32.39C76.53 33.3731 77.327 34.17 78.31 34.17Z" fill="white"/>
<path opacity="0.5" d="M93.6101 34.17C94.5931 34.17 95.3901 33.3731 95.3901 32.39C95.3901 31.4069 94.5931 30.61 93.6101 30.61C92.627 30.61 91.8301 31.4069 91.8301 32.39C91.8301 33.3731 92.627 34.17 93.6101 34.17Z" fill="white"/>
<path opacity="0.5" d="M108.92 34.17C109.903 34.17 110.7 33.3731 110.7 32.39C110.7 31.4069 109.903 30.61 108.92 30.61C107.937 30.61 107.14 31.4069 107.14 32.39C107.14 33.3731 107.937 34.17 108.92 34.17Z" fill="white"/>
<path opacity="0.5" d="M3.56 47.69C3.56 48.67 2.76 49.47 1.78 49.47C0.799999 49.47 0 48.67 0 47.69C0 46.71 0.799999 45.91 1.78 45.91C2.76 45.92 3.56 46.71 3.56 47.69Z" fill="white"/>
<path opacity="0.5" d="M17.0901 49.47C18.0731 49.47 18.8701 48.6731 18.8701 47.69C18.8701 46.7069 18.0731 45.91 17.0901 45.91C16.107 45.91 15.3101 46.7069 15.3101 47.69C15.3101 48.6731 16.107 49.47 17.0901 49.47Z" fill="white"/>
<path opacity="0.5" d="M32.3901 49.47C33.3732 49.47 34.1701 48.6731 34.1701 47.69C34.1701 46.7069 33.3732 45.91 32.3901 45.91C31.407 45.91 30.6101 46.7069 30.6101 47.69C30.6101 48.6731 31.407 49.47 32.3901 49.47Z" fill="white"/>
<path opacity="0.5" d="M49.4799 47.69C49.4799 48.67 48.6799 49.47 47.6999 49.47C46.7199 49.47 45.9199 48.67 45.9199 47.69C45.9199 46.71 46.7199 45.91 47.6999 45.91C48.6799 45.92 49.4799 46.71 49.4799 47.69Z" fill="white"/>
<path opacity="0.5" d="M63 49.47C63.983 49.47 64.78 48.6731 64.78 47.69C64.78 46.7069 63.983 45.91 63 45.91C62.0169 45.91 61.22 46.7069 61.22 47.69C61.22 48.6731 62.0169 49.47 63 49.47Z" fill="white"/>
<path opacity="0.5" d="M78.31 49.47C79.2931 49.47 80.09 48.6731 80.09 47.69C80.09 46.7069 79.2931 45.91 78.31 45.91C77.327 45.91 76.53 46.7069 76.53 47.69C76.53 48.6731 77.327 49.47 78.31 49.47Z" fill="white"/>
<path opacity="0.5" d="M93.6101 49.47C94.5931 49.47 95.3901 48.6731 95.3901 47.69C95.3901 46.7069 94.5931 45.91 93.6101 45.91C92.627 45.91 91.8301 46.7069 91.8301 47.69C91.8301 48.6731 92.627 49.47 93.6101 49.47Z" fill="white"/>
<path opacity="0.5" d="M108.92 49.47C109.903 49.47 110.7 48.6731 110.7 47.69C110.7 46.7069 109.903 45.91 108.92 45.91C107.937 45.91 107.14 46.7069 107.14 47.69C107.14 48.6731 107.937 49.47 108.92 49.47Z" fill="white"/>
<path opacity="0.5" d="M3.56 63C3.56 63.98 2.76 64.78 1.78 64.78C0.799999 64.78 0 63.98 0 63C0 62.02 0.799999 61.22 1.78 61.22C2.76 61.22 3.56 62.02 3.56 63Z" fill="white"/>
<path opacity="0.5" d="M17.0901 64.78C18.0731 64.78 18.8701 63.9831 18.8701 63C18.8701 62.0169 18.0731 61.22 17.0901 61.22C16.107 61.22 15.3101 62.0169 15.3101 63C15.3101 63.9831 16.107 64.78 17.0901 64.78Z" fill="white"/>
<path opacity="0.5" d="M32.3901 64.78C33.3732 64.78 34.1701 63.9831 34.1701 63C34.1701 62.0169 33.3732 61.22 32.3901 61.22C31.407 61.22 30.6101 62.0169 30.6101 63C30.6101 63.9831 31.407 64.78 32.3901 64.78Z" fill="white"/>
<path opacity="0.5" d="M49.4799 63C49.4799 63.98 48.6799 64.78 47.6999 64.78C46.7199 64.78 45.9199 63.98 45.9199 63C45.9199 62.02 46.7199 61.22 47.6999 61.22C48.6799 61.22 49.4799 62.02 49.4799 63Z" fill="white"/>
<path opacity="0.5" d="M63 64.78C63.983 64.78 64.78 63.9831 64.78 63C64.78 62.0169 63.983 61.22 63 61.22C62.0169 61.22 61.22 62.0169 61.22 63C61.22 63.9831 62.0169 64.78 63 64.78Z" fill="white"/>
<path opacity="0.5" d="M78.31 64.78C79.2931 64.78 80.09 63.9831 80.09 63C80.09 62.0169 79.2931 61.22 78.31 61.22C77.327 61.22 76.53 62.0169 76.53 63C76.53 63.9831 77.327 64.78 78.31 64.78Z" fill="white"/>
<path opacity="0.5" d="M93.6101 64.78C94.5931 64.78 95.3901 63.9831 95.3901 63C95.3901 62.0169 94.5931 61.22 93.6101 61.22C92.627 61.22 91.8301 62.0169 91.8301 63C91.8301 63.9831 92.627 64.78 93.6101 64.78Z" fill="white"/>
<path opacity="0.5" d="M108.92 64.78C109.903 64.78 110.7 63.9831 110.7 63C110.7 62.0169 109.903 61.22 108.92 61.22C107.937 61.22 107.14 62.0169 107.14 63C107.14 63.9831 107.937 64.78 108.92 64.78Z" fill="white"/>
<path opacity="0.5" d="M3.56 78.31C3.56 79.29 2.76 80.09 1.78 80.09C0.799999 80.09 0 79.29 0 78.31C0 77.33 0.799999 76.53 1.78 76.53C2.76 76.53 3.56 77.32 3.56 78.31Z" fill="white"/>
<path opacity="0.5" d="M17.0901 80.09C18.0731 80.09 18.8701 79.2931 18.8701 78.31C18.8701 77.3269 18.0731 76.53 17.0901 76.53C16.107 76.53 15.3101 77.3269 15.3101 78.31C15.3101 79.2931 16.107 80.09 17.0901 80.09Z" fill="white"/>
<path opacity="0.5" d="M32.3901 80.09C33.3732 80.09 34.1701 79.2931 34.1701 78.31C34.1701 77.3269 33.3732 76.53 32.3901 76.53C31.407 76.53 30.6101 77.3269 30.6101 78.31C30.6101 79.2931 31.407 80.09 32.3901 80.09Z" fill="white"/>
<path opacity="0.5" d="M49.4799 78.31C49.4799 79.29 48.6799 80.09 47.6999 80.09C46.7199 80.09 45.9199 79.29 45.9199 78.31C45.9199 77.33 46.7199 76.53 47.6999 76.53C48.6799 76.53 49.4799 77.32 49.4799 78.31Z" fill="white"/>
<path opacity="0.5" d="M63 80.09C63.983 80.09 64.78 79.2931 64.78 78.31C64.78 77.3269 63.983 76.53 63 76.53C62.0169 76.53 61.22 77.3269 61.22 78.31C61.22 79.2931 62.0169 80.09 63 80.09Z" fill="white"/>
<path opacity="0.5" d="M78.31 80.09C79.2931 80.09 80.09 79.2931 80.09 78.31C80.09 77.3269 79.2931 76.53 78.31 76.53C77.327 76.53 76.53 77.3269 76.53 78.31C76.53 79.2931 77.327 80.09 78.31 80.09Z" fill="white"/>
<path opacity="0.5" d="M93.6101 80.09C94.5931 80.09 95.3901 79.2931 95.3901 78.31C95.3901 77.3269 94.5931 76.53 93.6101 76.53C92.627 76.53 91.8301 77.3269 91.8301 78.31C91.8301 79.2931 92.627 80.09 93.6101 80.09Z" fill="white"/>
<path opacity="0.5" d="M108.92 80.09C109.903 80.09 110.7 79.2931 110.7 78.31C110.7 77.3269 109.903 76.53 108.92 76.53C107.937 76.53 107.14 77.3269 107.14 78.31C107.14 79.2931 107.937 80.09 108.92 80.09Z" fill="white"/>
</g>
<g opacity="0.5">
<path opacity="0.5" d="M611.45 269.64C612.433 269.64 613.23 268.843 613.23 267.86C613.23 266.877 612.433 266.08 611.45 266.08C610.467 266.08 609.67 266.877 609.67 267.86C609.67 268.843 610.467 269.64 611.45 269.64Z" fill="white"/>
<path opacity="0.5" d="M611.45 284.95C612.433 284.95 613.23 284.153 613.23 283.17C613.23 282.187 612.433 281.39 611.45 281.39C610.467 281.39 609.67 282.187 609.67 283.17C609.67 284.153 610.467 284.95 611.45 284.95Z" fill="white"/>
<path opacity="0.5" d="M611.45 300.25C612.433 300.25 613.23 299.453 613.23 298.47C613.23 297.487 612.433 296.69 611.45 296.69C610.467 296.69 609.67 297.487 609.67 298.47C609.67 299.453 610.467 300.25 611.45 300.25Z" fill="white"/>
<path opacity="0.5" d="M611.45 315.56C612.433 315.56 613.23 314.763 613.23 313.78C613.23 312.797 612.433 312 611.45 312C610.467 312 609.67 312.797 609.67 313.78C609.67 314.763 610.467 315.56 611.45 315.56Z" fill="white"/>
<path opacity="0.5" d="M611.45 330.86C612.433 330.86 613.23 330.063 613.23 329.08C613.23 328.097 612.433 327.3 611.45 327.3C610.467 327.3 609.67 328.097 609.67 329.08C609.67 330.063 610.467 330.86 611.45 330.86Z" fill="white"/>
<path opacity="0.5" d="M611.45 346.17C612.433 346.17 613.23 345.373 613.23 344.39C613.23 343.407 612.433 342.61 611.45 342.61C610.467 342.61 609.67 343.407 609.67 344.39C609.67 345.373 610.467 346.17 611.45 346.17Z" fill="white"/>
<path opacity="0.5" d="M611.45 361.47C612.433 361.47 613.23 360.673 613.23 359.69C613.23 358.707 612.433 357.91 611.45 357.91C610.467 357.91 609.67 358.707 609.67 359.69C609.67 360.673 610.467 361.47 611.45 361.47Z" fill="white"/>
<path opacity="0.5" d="M611.45 376.77C610.47 376.77 609.67 375.97 609.67 374.99C609.67 374.01 610.47 373.21 611.45 373.21C612.43 373.21 613.23 374.01 613.23 374.99C613.23 375.98 612.43 376.77 611.45 376.77Z" fill="white"/>
<path opacity="0.5" d="M596.15 269.64C595.17 269.64 594.37 268.84 594.37 267.86C594.37 266.88 595.17 266.08 596.15 266.08C597.13 266.08 597.93 266.88 597.93 267.86C597.92 268.84 597.13 269.64 596.15 269.64Z" fill="white"/>
<path opacity="0.5" d="M596.15 284.94C595.17 284.94 594.37 284.14 594.37 283.16C594.37 282.18 595.17 281.38 596.15 281.38C597.13 281.38 597.93 282.18 597.93 283.16C597.92 284.15 597.13 284.94 596.15 284.94Z" fill="white"/>
<path opacity="0.5" d="M596.15 300.25C595.17 300.25 594.37 299.45 594.37 298.47C594.37 297.49 595.17 296.69 596.15 296.69C597.13 296.69 597.93 297.49 597.93 298.47C597.92 299.45 597.13 300.25 596.15 300.25Z" fill="white"/>
<path opacity="0.5" d="M596.15 315.55C595.17 315.55 594.37 314.75 594.37 313.77C594.37 312.79 595.17 311.99 596.15 311.99C597.13 311.99 597.93 312.79 597.93 313.77C597.92 314.76 597.13 315.55 596.15 315.55Z" fill="white"/>
<path opacity="0.5" d="M596.15 330.86C595.17 330.86 594.37 330.06 594.37 329.08C594.37 328.1 595.17 327.3 596.15 327.3C597.13 327.3 597.93 328.1 597.93 329.08C597.92 330.06 597.13 330.86 596.15 330.86Z" fill="white"/>
<path opacity="0.5" d="M596.15 346.16C595.17 346.16 594.37 345.36 594.37 344.38C594.37 343.4 595.17 342.6 596.15 342.6C597.13 342.6 597.93 343.4 597.93 344.38C597.93 345.36 597.13 346.16 596.15 346.16Z" fill="white"/>
<path opacity="0.5" d="M596.15 361.47C595.17 361.47 594.37 360.67 594.37 359.69C594.37 358.71 595.17 357.91 596.15 357.91C597.13 357.91 597.93 358.71 597.93 359.69C597.93 360.67 597.13 361.47 596.15 361.47Z" fill="white"/>
<path opacity="0.5" d="M596.15 376.77C595.17 376.77 594.37 375.97 594.37 374.99C594.37 374.01 595.17 373.21 596.15 373.21C597.13 373.21 597.93 374.01 597.93 374.99C597.92 375.98 597.13 376.77 596.15 376.77Z" fill="white"/>
<path opacity="0.5" d="M580.84 269.64C581.823 269.64 582.62 268.843 582.62 267.86C582.62 266.877 581.823 266.08 580.84 266.08C579.857 266.08 579.06 266.877 579.06 267.86C579.06 268.843 579.857 269.64 580.84 269.64Z" fill="white"/>
<path opacity="0.5" d="M580.84 284.95C581.823 284.95 582.62 284.153 582.62 283.17C582.62 282.187 581.823 281.39 580.84 281.39C579.857 281.39 579.06 282.187 579.06 283.17C579.06 284.153 579.857 284.95 580.84 284.95Z" fill="white"/>
<path opacity="0.5" d="M580.84 300.25C581.823 300.25 582.62 299.453 582.62 298.47C582.62 297.487 581.823 296.69 580.84 296.69C579.857 296.69 579.06 297.487 579.06 298.47C579.06 299.453 579.857 300.25 580.84 300.25Z" fill="white"/>
<path opacity="0.5" d="M580.84 315.56C581.823 315.56 582.62 314.763 582.62 313.78C582.62 312.797 581.823 312 580.84 312C579.857 312 579.06 312.797 579.06 313.78C579.06 314.763 579.857 315.56 580.84 315.56Z" fill="white"/>
<path opacity="0.5" d="M580.84 330.86C581.823 330.86 582.62 330.063 582.62 329.08C582.62 328.097 581.823 327.3 580.84 327.3C579.857 327.3 579.06 328.097 579.06 329.08C579.06 330.063 579.857 330.86 580.84 330.86Z" fill="white"/>
<path opacity="0.5" d="M580.84 346.17C581.823 346.17 582.62 345.373 582.62 344.39C582.62 343.407 581.823 342.61 580.84 342.61C579.857 342.61 579.06 343.407 579.06 344.39C579.06 345.373 579.857 346.17 580.84 346.17Z" fill="white"/>
<path opacity="0.5" d="M580.84 361.47C581.823 361.47 582.62 360.673 582.62 359.69C582.62 358.707 581.823 357.91 580.84 357.91C579.857 357.91 579.06 358.707 579.06 359.69C579.06 360.673 579.857 361.47 580.84 361.47Z" fill="white"/>
<path opacity="0.5" d="M580.84 376.77C579.86 376.77 579.06 375.97 579.06 374.99C579.06 374.01 579.86 373.21 580.84 373.21C581.82 373.21 582.62 374.01 582.62 374.99C582.62 375.98 581.82 376.77 580.84 376.77Z" fill="white"/>
<path opacity="0.5" d="M565.53 269.64C566.513 269.64 567.31 268.843 567.31 267.86C567.31 266.877 566.513 266.08 565.53 266.08C564.547 266.08 563.75 266.877 563.75 267.86C563.75 268.843 564.547 269.64 565.53 269.64Z" fill="white"/>
<path opacity="0.5" d="M565.53 284.95C566.513 284.95 567.31 284.153 567.31 283.17C567.31 282.187 566.513 281.39 565.53 281.39C564.547 281.39 563.75 282.187 563.75 283.17C563.75 284.153 564.547 284.95 565.53 284.95Z" fill="white"/>
<path opacity="0.5" d="M565.53 300.25C566.513 300.25 567.31 299.453 567.31 298.47C567.31 297.487 566.513 296.69 565.53 296.69C564.547 296.69 563.75 297.487 563.75 298.47C563.75 299.453 564.547 300.25 565.53 300.25Z" fill="white"/>
<path opacity="0.5" d="M565.53 315.56C566.513 315.56 567.31 314.763 567.31 313.78C567.31 312.797 566.513 312 565.53 312C564.547 312 563.75 312.797 563.75 313.78C563.75 314.763 564.547 315.56 565.53 315.56Z" fill="white"/>
<path opacity="0.5" d="M565.53 330.86C566.513 330.86 567.31 330.063 567.31 329.08C567.31 328.097 566.513 327.3 565.53 327.3C564.547 327.3 563.75 328.097 563.75 329.08C563.75 330.063 564.547 330.86 565.53 330.86Z" fill="white"/>
<path opacity="0.5" d="M565.53 346.17C566.513 346.17 567.31 345.373 567.31 344.39C567.31 343.407 566.513 342.61 565.53 342.61C564.547 342.61 563.75 343.407 563.75 344.39C563.75 345.373 564.547 346.17 565.53 346.17Z" fill="white"/>
<path opacity="0.5" d="M565.53 361.47C566.513 361.47 567.31 360.673 567.31 359.69C567.31 358.707 566.513 357.91 565.53 357.91C564.547 357.91 563.75 358.707 563.75 359.69C563.75 360.673 564.547 361.47 565.53 361.47Z" fill="white"/>
<path opacity="0.5" d="M565.53 376.77C564.55 376.77 563.75 375.97 563.75 374.99C563.75 374.01 564.55 373.21 565.53 373.21C566.51 373.21 567.31 374.01 567.31 374.99C567.31 375.98 566.52 376.77 565.53 376.77Z" fill="white"/>
<path opacity="0.5" d="M550.23 269.64C551.213 269.64 552.01 268.843 552.01 267.86C552.01 266.877 551.213 266.08 550.23 266.08C549.247 266.08 548.45 266.877 548.45 267.86C548.45 268.843 549.247 269.64 550.23 269.64Z" fill="white"/>
<path opacity="0.5" d="M550.23 284.95C551.213 284.95 552.01 284.153 552.01 283.17C552.01 282.187 551.213 281.39 550.23 281.39C549.247 281.39 548.45 282.187 548.45 283.17C548.45 284.153 549.247 284.95 550.23 284.95Z" fill="white"/>
<path opacity="0.5" d="M550.23 300.25C551.213 300.25 552.01 299.453 552.01 298.47C552.01 297.487 551.213 296.69 550.23 296.69C549.247 296.69 548.45 297.487 548.45 298.47C548.45 299.453 549.247 300.25 550.23 300.25Z" fill="white"/>
<path opacity="0.5" d="M550.23 315.56C551.213 315.56 552.01 314.763 552.01 313.78C552.01 312.797 551.213 312 550.23 312C549.247 312 548.45 312.797 548.45 313.78C548.45 314.763 549.247 315.56 550.23 315.56Z" fill="white"/>
<path opacity="0.5" d="M550.23 330.86C551.213 330.86 552.01 330.063 552.01 329.08C552.01 328.097 551.213 327.3 550.23 327.3C549.247 327.3 548.45 328.097 548.45 329.08C548.45 330.063 549.247 330.86 550.23 330.86Z" fill="white"/>
<path opacity="0.5" d="M550.23 346.17C551.213 346.17 552.01 345.373 552.01 344.39C552.01 343.407 551.213 342.61 550.23 342.61C549.247 342.61 548.45 343.407 548.45 344.39C548.45 345.373 549.247 346.17 550.23 346.17Z" fill="white"/>
<path opacity="0.5" d="M550.23 361.47C551.213 361.47 552.01 360.673 552.01 359.69C552.01 358.707 551.213 357.91 550.23 357.91C549.247 357.91 548.45 358.707 548.45 359.69C548.45 360.673 549.247 361.47 550.23 361.47Z" fill="white"/>
<path opacity="0.5" d="M550.23 376.77C549.25 376.77 548.45 375.97 548.45 374.99C548.45 374.01 549.25 373.21 550.23 373.21C551.21 373.21 552.01 374.01 552.01 374.99C552.01 375.98 551.21 376.77 550.23 376.77Z" fill="white"/>
<path opacity="0.5" d="M534.92 269.64C535.903 269.64 536.7 268.843 536.7 267.86C536.7 266.877 535.903 266.08 534.92 266.08C533.937 266.08 533.14 266.877 533.14 267.86C533.14 268.843 533.937 269.64 534.92 269.64Z" fill="white"/>
<path opacity="0.5" d="M534.92 284.95C535.903 284.95 536.7 284.153 536.7 283.17C536.7 282.187 535.903 281.39 534.92 281.39C533.937 281.39 533.14 282.187 533.14 283.17C533.14 284.153 533.937 284.95 534.92 284.95Z" fill="white"/>
<path opacity="0.5" d="M534.92 300.25C535.903 300.25 536.7 299.453 536.7 298.47C536.7 297.487 535.903 296.69 534.92 296.69C533.937 296.69 533.14 297.487 533.14 298.47C533.14 299.453 533.937 300.25 534.92 300.25Z" fill="white"/>
<path opacity="0.5" d="M534.92 315.56C535.903 315.56 536.7 314.763 536.7 313.78C536.7 312.797 535.903 312 534.92 312C533.937 312 533.14 312.797 533.14 313.78C533.14 314.763 533.937 315.56 534.92 315.56Z" fill="white"/>
<path opacity="0.5" d="M534.92 330.86C535.903 330.86 536.7 330.063 536.7 329.08C536.7 328.097 535.903 327.3 534.92 327.3C533.937 327.3 533.14 328.097 533.14 329.08C533.14 330.063 533.937 330.86 534.92 330.86Z" fill="white"/>
<path opacity="0.5" d="M534.92 346.17C535.903 346.17 536.7 345.373 536.7 344.39C536.7 343.407 535.903 342.61 534.92 342.61C533.937 342.61 533.14 343.407 533.14 344.39C533.14 345.373 533.937 346.17 534.92 346.17Z" fill="white"/>
<path opacity="0.5" d="M534.92 361.47C535.903 361.47 536.7 360.673 536.7 359.69C536.7 358.707 535.903 357.91 534.92 357.91C533.937 357.91 533.14 358.707 533.14 359.69C533.14 360.673 533.937 361.47 534.92 361.47Z" fill="white"/>
<path opacity="0.5" d="M534.92 376.77C533.94 376.77 533.14 375.97 533.14 374.99C533.14 374.01 533.94 373.21 534.92 373.21C535.9 373.21 536.7 374.01 536.7 374.99C536.7 375.98 535.9 376.77 534.92 376.77Z" fill="white"/>
</g>
<g opacity="0.5">
<path opacity="0.5" d="M416.06 38.7C416.06 39.68 415.26 40.48 414.28 40.48C413.3 40.48 412.5 39.68 412.5 38.7C412.5 37.72 413.3 36.92 414.28 36.92C415.26 36.92 416.06 37.72 416.06 38.7Z" fill="white"/>
<path opacity="0.5" d="M431.37 38.7C431.37 39.68 430.57 40.48 429.59 40.48C428.61 40.48 427.81 39.68 427.81 38.7C427.81 37.72 428.61 36.92 429.59 36.92C430.57 36.93 431.37 37.72 431.37 38.7Z" fill="white"/>
<path opacity="0.5" d="M446.67 38.7C446.67 39.68 445.87 40.48 444.89 40.48C443.91 40.48 443.11 39.68 443.11 38.7C443.11 37.72 443.91 36.92 444.89 36.92C445.87 36.92 446.67 37.72 446.67 38.7Z" fill="white"/>
<path opacity="0.5" d="M416.06 54.01C416.06 54.99 415.26 55.79 414.28 55.79C413.3 55.79 412.5 54.99 412.5 54.01C412.5 53.03 413.3 52.23 414.28 52.23C415.26 52.23 416.06 53.03 416.06 54.01Z" fill="white"/>
<path opacity="0.5" d="M431.37 54.01C431.37 54.99 430.57 55.79 429.59 55.79C428.61 55.79 427.81 54.99 427.81 54.01C427.81 53.03 428.61 52.23 429.59 52.23C430.57 52.23 431.37 53.03 431.37 54.01Z" fill="white"/>
<path opacity="0.5" d="M446.67 54.01C446.67 54.99 445.87 55.79 444.89 55.79C443.91 55.79 443.11 54.99 443.11 54.01C443.11 53.03 443.91 52.23 444.89 52.23C445.87 52.23 446.67 53.03 446.67 54.01Z" fill="white"/>
<path opacity="0.5" d="M416.06 69.31C416.06 70.29 415.26 71.09 414.28 71.09C413.3 71.09 412.5 70.29 412.5 69.31C412.5 68.33 413.3 67.53 414.28 67.53C415.26 67.53 416.06 68.33 416.06 69.31Z" fill="white"/>
<path opacity="0.5" d="M431.37 69.31C431.37 70.29 430.57 71.09 429.59 71.09C428.61 71.09 427.81 70.29 427.81 69.31C427.81 68.33 428.61 67.53 429.59 67.53C430.57 67.54 431.37 68.33 431.37 69.31Z" fill="white"/>
<path opacity="0.5" d="M446.67 69.31C446.67 70.29 445.87 71.09 444.89 71.09C443.91 71.09 443.11 70.29 443.11 69.31C443.11 68.33 443.91 67.53 444.89 67.53C445.87 67.53 446.67 68.33 446.67 69.31Z" fill="white"/>
</g>
<g opacity="0.5">
<path opacity="0.5" d="M273.16 174.69C273.16 175.67 272.36 176.47 271.38 176.47C270.4 176.47 269.6 175.67 269.6 174.69C269.6 173.71 270.4 172.91 271.38 172.91C272.37 172.91 273.16 173.7 273.16 174.69Z" fill="white"/>
<path opacity="0.5" d="M286.69 176.47C287.673 176.47 288.47 175.673 288.47 174.69C288.47 173.707 287.673 172.91 286.69 172.91C285.707 172.91 284.91 173.707 284.91 174.69C284.91 175.673 285.707 176.47 286.69 176.47Z" fill="white"/>
<path opacity="0.5" d="M301.99 176.47C302.973 176.47 303.77 175.673 303.77 174.69C303.77 173.707 302.973 172.91 301.99 172.91C301.007 172.91 300.21 173.707 300.21 174.69C300.21 175.673 301.007 176.47 301.99 176.47Z" fill="white"/>
<path opacity="0.5" d="M273.16 189.99C273.16 190.97 272.36 191.77 271.38 191.77C270.4 191.77 269.6 190.97 269.6 189.99C269.6 189.01 270.4 188.21 271.38 188.21C272.37 188.21 273.16 189.01 273.16 189.99Z" fill="white"/>
<path opacity="0.5" d="M286.69 191.77C287.673 191.77 288.47 190.973 288.47 189.99C288.47 189.007 287.673 188.21 286.69 188.21C285.707 188.21 284.91 189.007 284.91 189.99C284.91 190.973 285.707 191.77 286.69 191.77Z" fill="white"/>
<path opacity="0.5" d="M301.99 191.77C302.973 191.77 303.77 190.973 303.77 189.99C303.77 189.007 302.973 188.21 301.99 188.21C301.007 188.21 300.21 189.007 300.21 189.99C300.21 190.973 301.007 191.77 301.99 191.77Z" fill="white"/>
<path opacity="0.5" d="M273.16 205.3C273.16 206.28 272.36 207.08 271.38 207.08C270.4 207.08 269.6 206.28 269.6 205.3C269.6 204.32 270.4 203.52 271.38 203.52C272.37 203.52 273.16 204.32 273.16 205.3Z" fill="white"/>
<path opacity="0.5" d="M288.47 205.3C288.47 206.28 287.67 207.08 286.69 207.08C285.71 207.08 284.91 206.28 284.91 205.3C284.91 204.32 285.71 203.52 286.69 203.52C287.67 203.52 288.47 204.32 288.47 205.3Z" fill="white"/>
<path opacity="0.5" d="M303.77 205.3C303.77 206.28 302.97 207.08 301.99 207.08C301.01 207.08 300.21 206.28 300.21 205.3C300.21 204.32 301.01 203.52 301.99 203.52C302.98 203.52 303.77 204.32 303.77 205.3Z" fill="white"/>
</g>
</svg>
