<svg width="677" height="372" viewBox="0 0 677 372" fill="none" xmlns="http://www.w3.org/2000/svg">
<g opacity="0.49">
<path opacity="0.49" d="M144.36 9.16C146.613 9.16 148.44 7.33332 148.44 5.08C148.44 2.82668 146.613 1 144.36 1C142.107 1 140.28 2.82668 140.28 5.08C140.28 7.33332 142.107 9.16 144.36 9.16Z" stroke="white" stroke-width="2" stroke-miterlimit="10" stroke-linecap="round" stroke-linejoin="round"/>
<path opacity="0.49" d="M423.5 282.12C423.5 284.37 421.67 286.2 419.42 286.2C417.17 286.2 415.34 284.37 415.34 282.12C415.34 279.87 417.17 278.04 419.42 278.04C421.67 278.04 423.5 279.87 423.5 282.12Z" stroke="white" stroke-width="2" stroke-miterlimit="10" stroke-linecap="round" stroke-linejoin="round"/>
<path opacity="0.49" d="M295.92 80.55C295.92 82.8 294.09 84.63 291.84 84.63C289.59 84.63 287.76 82.8 287.76 80.55C287.76 78.3 289.59 76.47 291.84 76.47C294.1 76.47 295.92 78.29 295.92 80.55Z" stroke="white" stroke-width="2" stroke-miterlimit="10" stroke-linecap="round" stroke-linejoin="round"/>
<path opacity="0.49" d="M9.16 213.48C9.16 215.73 7.33 217.56 5.08 217.56C2.83 217.56 1 215.73 1 213.48C1 211.23 2.83 209.4 5.08 209.4C7.34 209.4 9.16 211.23 9.16 213.48Z" stroke="white" stroke-width="2" stroke-miterlimit="10" stroke-linecap="round" stroke-linejoin="round"/>
<path opacity="0.49" d="M50.4601 93.92C50.4601 96.17 48.6301 98 46.3801 98C44.1301 98 42.3 96.17 42.3 93.92C42.3 91.67 44.1301 89.84 46.3801 89.84C48.6301 89.84 50.4601 91.67 50.4601 93.92Z" stroke="white" stroke-width="2" stroke-miterlimit="10" stroke-linecap="round" stroke-linejoin="round"/>
<g opacity="0.49">
<path opacity="0.49" d="M372.08 40.03V47.17" stroke="white" stroke-width="2" stroke-miterlimit="10" stroke-linecap="round" stroke-linejoin="round"/>
<path opacity="0.49" d="M375.65 43.6H368.52" stroke="white" stroke-width="2" stroke-miterlimit="10" stroke-linecap="round" stroke-linejoin="round"/>
</g>
<g opacity="0.49">
<path opacity="0.49" d="M672.12 278.56V285.69" stroke="white" stroke-width="2" stroke-miterlimit="10" stroke-linecap="round" stroke-linejoin="round"/>
<path opacity="0.49" d="M675.69 282.12H668.56" stroke="white" stroke-width="2" stroke-miterlimit="10" stroke-linecap="round" stroke-linejoin="round"/>
</g>
<g opacity="0.49">
<path opacity="0.49" d="M168.83 213.96V221.09" stroke="white" stroke-width="2" stroke-miterlimit="10" stroke-linecap="round" stroke-linejoin="round"/>
<path opacity="0.49" d="M172.4 217.52H165.27" stroke="white" stroke-width="2" stroke-miterlimit="10" stroke-linecap="round" stroke-linejoin="round"/>
</g>
<g opacity="0.49">
<g opacity="0.49">
<path opacity="0.49" d="M533.47 363.84V370.97" stroke="white" stroke-width="2" stroke-miterlimit="10" stroke-linecap="round" stroke-linejoin="round"/>
<path opacity="0.49" d="M537.03 367.4H529.9" stroke="white" stroke-width="2" stroke-miterlimit="10" stroke-linecap="round" stroke-linejoin="round"/>
</g>
<g opacity="0.49">
<path opacity="0.49" d="M511.91 363.84V370.97" stroke="white" stroke-width="2" stroke-miterlimit="10" stroke-linecap="round" stroke-linejoin="round"/>
<path opacity="0.49" d="M515.47 367.4H508.34" stroke="white" stroke-width="2" stroke-miterlimit="10" stroke-linecap="round" stroke-linejoin="round"/>
</g>
<g opacity="0.49">
<path opacity="0.49" d="M490.35 363.84V370.97" stroke="white" stroke-width="2" stroke-miterlimit="10" stroke-linecap="round" stroke-linejoin="round"/>
<path opacity="0.49" d="M493.91 367.4H486.78" stroke="white" stroke-width="2" stroke-miterlimit="10" stroke-linecap="round" stroke-linejoin="round"/>
</g>
</g>
<g opacity="0.49">
<g opacity="0.49">
<path opacity="0.49" d="M50.4602 44.84V51.97" stroke="white" stroke-width="2" stroke-miterlimit="10" stroke-linecap="round" stroke-linejoin="round"/>
<path opacity="0.49" d="M54.0201 48.41H46.8901" stroke="white" stroke-width="2" stroke-miterlimit="10" stroke-linecap="round" stroke-linejoin="round"/>
</g>
<g opacity="0.49">
<path opacity="0.49" d="M28.9001 44.84V51.97" stroke="white" stroke-width="2" stroke-miterlimit="10" stroke-linecap="round" stroke-linejoin="round"/>
<path opacity="0.49" d="M32.4701 48.41H25.3301" stroke="white" stroke-width="2" stroke-miterlimit="10" stroke-linecap="round" stroke-linejoin="round"/>
</g>
<g opacity="0.49">
<path opacity="0.49" d="M7.34009 44.84V51.97" stroke="white" stroke-width="2" stroke-miterlimit="10" stroke-linecap="round" stroke-linejoin="round"/>
<path opacity="0.49" d="M10.91 48.41H3.78003" stroke="white" stroke-width="2" stroke-miterlimit="10" stroke-linecap="round" stroke-linejoin="round"/>
</g>
</g>
<path opacity="0.49" d="M253.62 193.34L259.17 183.73H248.07L253.62 193.34Z" stroke="white" stroke-width="2" stroke-miterlimit="10" stroke-linecap="round" stroke-linejoin="round"/>
<path opacity="0.49" d="M519.04 47.17L513.49 56.78H524.59L519.04 47.17Z" stroke="white" stroke-width="2" stroke-miterlimit="10" stroke-linecap="round" stroke-linejoin="round"/>
<path opacity="0.49" d="M245 338.93C247.42 336.51 251.66 340.75 254.08 338.33C256.5 335.91 252.26 331.67 254.68 329.25C257.1 326.83 261.34 331.07 263.76 328.65C266.18 326.23 261.94 321.99 264.35 319.57C266.77 317.15 271.01 321.39 273.43 318.97C275.85 316.55 271.61 312.31 274.03 309.88C276.45 307.46 280.69 311.7 283.12 309.28" stroke="white" stroke-width="2" stroke-miterlimit="10" stroke-linecap="round" stroke-linejoin="round"/>
<path opacity="0.49" d="M455.79 319.16C458.21 316.74 462.45 320.98 464.87 318.56C467.29 316.14 463.05 311.9 465.47 309.48C467.89 307.06 472.13 311.3 474.55 308.88C476.97 306.46 472.73 302.22 475.14 299.8C477.56 297.38 481.8 301.62 484.22 299.2C486.64 296.78 482.4 292.54 484.82 290.11C487.24 287.69 491.48 291.93 493.91 289.51" stroke="white" stroke-width="2" stroke-miterlimit="10" stroke-linecap="round" stroke-linejoin="round"/>
<path opacity="0.49" d="M467.72 44.66C470.14 42.24 474.38 46.48 476.8 44.06C479.22 41.64 474.98 37.4 477.4 34.98C479.82 32.56 484.06 36.8 486.48 34.38C488.9 31.96 484.66 27.72 487.07 25.3C489.49 22.88 493.73 27.12 496.15 24.7C498.57 22.28 494.33 18.04 496.75 15.61C499.17 13.19 503.41 17.43 505.84 15.01" stroke="white" stroke-width="2" stroke-miterlimit="10" stroke-linecap="round" stroke-linejoin="round"/>
</g>
</svg>
