<svg xmlns="http://www.w3.org/2000/svg" xmlns:xlink="http://www.w3.org/1999/xlink" width="500" zoomAndPan="magnify" viewBox="0 0 375 374.999991" height="500" preserveAspectRatio="xMidYMid meet" version="1.0"><defs><clipPath id="95dccd9555"><path d="M 118.050781 165.117188 L 154 165.117188 L 154 207 L 118.050781 207 Z M 118.050781 165.117188 " clip-rule="nonzero"/></clipPath><clipPath id="7db77f92fd"><path d="M 229 174 L 256.800781 174 L 256.800781 207 L 229 207 Z M 229 174 " clip-rule="nonzero"/></clipPath><clipPath id="cb04e4b5c5"><path d="M 157 174 L 188 174 L 188 210.117188 L 157 210.117188 Z M 157 174 " clip-rule="nonzero"/></clipPath></defs><rect x="-37.5" width="450" fill="#ffffff" y="-37.499999" height="449.999989" fill-opacity="1"/><rect x="-37.5" width="450" fill="#ffffff" y="-37.499999" height="449.999989" fill-opacity="1"/><rect x="-37.5" width="450" fill="#050505" y="-37.499999" height="449.999989" fill-opacity="1"/><g clip-path="url(#95dccd9555)"><path fill="#ff6060" d="M 131.257812 188.046875 L 123.875 195.648438 L 123.875 206.316406 L 118.0625 206.316406 L 118.0625 165.117188 L 123.875 165.117188 L 123.875 188.167969 L 145.910156 165.117188 L 152.570312 165.117188 L 135.253906 183.632812 L 153.78125 206.316406 L 147 206.316406 Z M 131.257812 188.046875 " fill-opacity="1" fill-rule="nonzero"/></g><path fill="#ff6060" d="M 196.164062 203.007812 L 198.464844 198.59375 C 201.125 200.429688 205.242188 201.78125 209.238281 201.78125 C 214.445312 201.78125 216.503906 200.1875 216.503906 197.488281 C 216.503906 190.5 197.007812 196.507812 197.007812 184.125 C 197.007812 178.484375 201.972656 174.804688 209.84375 174.804688 C 213.839844 174.804688 218.441406 175.90625 221.105469 177.625 L 218.683594 182.039062 C 215.898438 180.199219 212.871094 179.585938 209.84375 179.585938 C 205.003906 179.585938 202.578125 181.425781 202.578125 183.878906 C 202.578125 191.234375 222.074219 185.226562 222.074219 197.367188 C 222.074219 203.007812 216.988281 206.5625 208.753906 206.5625 C 203.789062 206.683594 198.707031 205.089844 196.164062 203.007812 Z M 196.164062 203.007812 " fill-opacity="1" fill-rule="nonzero"/><g clip-path="url(#7db77f92fd)"><path fill="#ff6060" d="M 256.34375 187.433594 L 256.34375 206.316406 L 251.015625 206.316406 L 251.015625 202.148438 C 249.199219 204.96875 245.6875 206.5625 240.84375 206.5625 C 233.820312 206.5625 229.460938 202.761719 229.460938 197.367188 C 229.460938 192.339844 232.609375 188.292969 241.8125 188.292969 L 250.652344 188.292969 L 250.652344 187.1875 C 250.652344 182.40625 247.867188 179.710938 242.417969 179.710938 C 238.785156 179.710938 235.03125 181.058594 232.609375 183.019531 L 230.308594 178.726562 C 233.457031 176.152344 238.058594 174.683594 243.023438 174.683594 C 251.621094 174.804688 256.34375 178.972656 256.34375 187.433594 Z M 250.773438 196.753906 L 250.773438 192.339844 L 242.175781 192.339844 C 236.605469 192.339844 235.03125 194.546875 235.03125 197.121094 C 235.03125 200.1875 237.574219 202.148438 241.8125 202.148438 C 246.050781 202.269531 249.441406 200.429688 250.773438 196.753906 Z M 250.773438 196.753906 " fill-opacity="1" fill-rule="nonzero"/></g><path fill="#ff6060" d="M 178.242188 198.101562 L 178.242188 206.441406 L 181.753906 204.355469 L 181.753906 196.015625 Z M 178.242188 198.101562 " fill-opacity="1" fill-rule="nonzero"/><g clip-path="url(#cb04e4b5c5)"><path fill="#ff6060" d="M 187.929688 187.925781 L 173.519531 179.464844 L 165.527344 174.804688 L 157.65625 188.660156 L 157.777344 201.65625 L 172.066406 210.117188 L 173.519531 209.257812 L 173.519531 197 L 179.9375 185.59375 L 186.476562 189.394531 L 186.476562 201.65625 L 187.929688 200.800781 Z M 187.929688 187.925781 " fill-opacity="1" fill-rule="nonzero"/></g></svg>