<svg xmlns="http://www.w3.org/2000/svg" xmlns:xlink="http://www.w3.org/1999/xlink" width="500" zoomAndPan="magnify" viewBox="0 0 375 374.999991" height="500" preserveAspectRatio="xMidYMid meet" version="1.0"><defs><clipPath id="a3cfe1f6ab"><path d="M 220 69 L 307.957031 69 L 307.957031 160 L 220 160 Z M 220 69 " clip-rule="nonzero"/></clipPath><clipPath id="0b0ae45bc3"><path d="M 67.207031 64 L 190 64 L 190 304 L 67.207031 304 Z M 67.207031 64 " clip-rule="nonzero"/></clipPath><clipPath id="00b1e7103d"><path d="M 157 138 L 307.957031 138 L 307.957031 323.203125 L 157 323.203125 Z M 157 138 " clip-rule="nonzero"/></clipPath><clipPath id="bdf2379b4e"><path d="M 100 51.703125 L 218 51.703125 L 218 237 L 100 237 Z M 100 51.703125 " clip-rule="nonzero"/></clipPath></defs><g clip-path="url(#a3cfe1f6ab)"><path fill="#cfff20" d="M 249.1875 94.203125 C 252.277344 96.222656 255.363281 98.28125 258.246094 100.597656 C 264.089844 105.167969 269.421875 110.269531 274.242188 115.902344 C 279.066406 121.539062 283.277344 127.597656 286.875 134.082031 C 290.46875 140.570312 293.378906 147.347656 295.601562 154.421875 L 295.601562 154.457031 C 295.691406 154.859375 295.824219 155.246094 295.996094 155.621094 C 296.167969 156 296.375 156.351562 296.621094 156.683594 C 296.867188 157.015625 297.144531 157.320312 297.453125 157.59375 C 297.757812 157.871094 298.09375 158.109375 298.449219 158.316406 C 298.808594 158.519531 299.183594 158.6875 299.578125 158.816406 C 299.96875 158.945312 300.371094 159.03125 300.78125 159.074219 C 301.195312 159.117188 301.605469 159.121094 302.015625 159.082031 C 302.425781 159.039062 302.828125 158.957031 303.222656 158.832031 C 303.617188 158.710938 303.996094 158.546875 304.355469 158.34375 C 304.714844 158.140625 305.050781 157.90625 305.363281 157.632812 C 305.671875 157.359375 305.953125 157.058594 306.199219 156.730469 C 306.449219 156.402344 306.660156 156.050781 306.835938 155.675781 C 307.011719 155.300781 307.148438 154.914062 307.242188 154.511719 C 307.335938 154.109375 307.390625 153.703125 307.398438 153.289062 C 307.410156 152.878906 307.378906 152.46875 307.304688 152.0625 C 307.230469 151.65625 307.113281 151.261719 306.957031 150.878906 C 304.496094 143.042969 301.292969 135.523438 297.351562 128.316406 C 293.375 121.121094 288.726562 114.386719 283.398438 108.121094 C 278.070312 101.859375 272.175781 96.183594 265.710938 91.097656 C 262.511719 88.527344 259.109375 86.214844 255.683594 83.976562 C 252.199219 81.804688 248.65625 79.734375 244.972656 77.925781 C 238.144531 74.480469 231.050781 71.714844 223.683594 69.636719 C 222.761719 73.058594 221.675781 76.988281 220.425781 81.394531 C 227.03125 83.238281 233.398438 85.699219 239.523438 88.78125 C 242.855469 90.398438 246.039062 92.277344 249.1875 94.203125 Z M 249.1875 94.203125 " fill-opacity="1" fill-rule="nonzero"/></g><g clip-path="url(#0b0ae45bc3)"><path fill="#cfff20" d="M 138.941406 284.09375 C 135.722656 282.328125 132.519531 280.519531 129.472656 278.445312 C 123.3125 274.375 117.628906 269.722656 112.421875 264.492188 C 107.203125 259.257812 102.558594 253.558594 98.488281 247.390625 C 94.429688 241.21875 91.019531 234.707031 88.25 227.859375 C 86.925781 224.4375 85.699219 220.941406 84.640625 217.382812 C 83.59375 213.859375 82.734375 210.289062 82.066406 206.675781 C 80.730469 199.421875 80.15625 192.109375 80.339844 184.738281 C 80.484375 177.351562 81.375 170.050781 83.003906 162.839844 C 84.632812 155.632812 86.972656 148.660156 90.015625 141.921875 C 91.539062 138.5625 93.226562 135.289062 95.082031 132.097656 C 96.933594 128.90625 98.941406 125.816406 101.105469 122.828125 C 103.269531 119.839844 105.574219 116.964844 108.027344 114.207031 C 110.480469 111.449219 113.0625 108.820312 115.777344 106.320312 C 118.496094 103.820312 121.328125 101.464844 124.28125 99.25 C 127.234375 97.03125 130.289062 94.972656 133.449219 93.0625 C 136.609375 91.152344 139.855469 89.40625 143.191406 87.824219 C 146.527344 86.242188 149.933594 84.828125 153.410156 83.585938 C 164.152344 79.75 175.222656 77.664062 186.625 77.320312 C 187.617188 73.261719 188.523438 69.148438 189.339844 64.976562 C 185.582031 64.992188 181.832031 65.179688 178.089844 65.542969 C 174.347656 65.902344 170.628906 66.4375 166.9375 67.144531 C 163.242188 67.847656 159.589844 68.722656 155.980469 69.765625 C 152.367188 70.808594 148.8125 72.015625 145.3125 73.386719 C 141.8125 74.757812 138.382812 76.285156 135.023438 77.976562 C 131.667969 79.664062 128.394531 81.503906 125.207031 83.492188 C 122.019531 85.484375 118.929688 87.617188 115.9375 89.894531 C 112.949219 92.171875 110.070312 94.578125 107.300781 97.121094 C 104.265625 99.894531 101.375 102.816406 98.628906 105.882812 C 95.886719 108.945312 93.304688 112.144531 90.886719 115.46875 C 88.46875 118.796875 86.222656 122.234375 84.148438 125.789062 C 82.078125 129.339844 80.191406 132.988281 78.488281 136.734375 C 76.785156 140.476562 75.277344 144.296875 73.960938 148.191406 C 72.644531 152.085938 71.527344 156.039062 70.613281 160.046875 C 69.695312 164.058594 68.984375 168.101562 68.476562 172.183594 C 67.96875 176.261719 67.667969 180.359375 67.574219 184.46875 C 67.21875 196.910156 68.792969 209.105469 72.292969 221.050781 C 73.445312 224.957031 74.789062 228.832031 76.277344 232.671875 C 79.335938 240.339844 83.132812 247.621094 87.664062 254.523438 C 92.195312 261.425781 97.367188 267.808594 103.1875 273.671875 C 111.957031 282.488281 121.832031 289.824219 132.804688 295.6875 C 136.464844 297.574219 140.164062 299.386719 144 300.90625 C 146.652344 301.992188 149.351562 302.996094 152.074219 303.878906 C 153.035156 300.363281 154.144531 296.371094 155.410156 291.90625 L 155.613281 291.191406 C 153.367188 290.453125 151.140625 289.652344 148.957031 288.75 C 145.539062 287.367188 142.199219 285.816406 138.941406 284.09375 Z M 138.941406 284.09375 " fill-opacity="1" fill-rule="nonzero"/></g><g clip-path="url(#00b1e7103d)"><path fill="#cfff20" d="M 307.375 207.65625 C 306.882812 204.96875 305.960938 202.4375 304.605469 200.0625 C 303.160156 197.558594 301.285156 195.429688 298.984375 193.675781 C 296.789062 192.027344 294.378906 190.792969 291.761719 189.964844 C 287.085938 188.542969 282.316406 188.097656 277.457031 188.628906 C 277.097656 188.664062 276.738281 188.699219 276.371094 188.742188 C 272.835938 189.152344 269.367188 189.875 265.964844 190.914062 L 266.621094 189.828125 C 271.699219 181.554688 274.019531 171.328125 274.605469 164.460938 C 275.191406 157.59375 274.214844 152.242188 271.628906 148.417969 C 271.476562 148.191406 271.320312 147.96875 271.15625 147.761719 C 270.84375 147.34375 270.503906 146.949219 270.140625 146.574219 C 267.820312 144.1875 264.742188 142.988281 260.910156 142.988281 L 260.046875 142.988281 C 254.910156 143.230469 249.15625 146.304688 242.773438 152.210938 C 238 156.765625 233.710938 161.742188 229.914062 167.140625 C 225.738281 172.925781 221.894531 178.777344 218.390625 184.6875 C 214.886719 190.59375 211.847656 196.117188 209.277344 201.25 C 206.703125 206.402344 204.746094 210.394531 203.40625 213.222656 C 206.03125 203.121094 209.5 193.3125 213.8125 183.808594 C 218.335938 173.699219 222.820312 163.207031 227.273438 152.339844 C 228.453125 149.390625 228.300781 146.828125 226.824219 144.664062 C 225.382812 142.507812 223.464844 140.921875 221.078125 139.90625 C 219.511719 139.226562 217.871094 138.886719 216.164062 138.878906 C 215.375 138.882812 214.589844 138.957031 213.8125 139.097656 C 213.230469 139.183594 212.667969 139.351562 212.132812 139.601562 C 211.597656 139.847656 211.109375 140.167969 210.664062 140.554688 C 210.21875 140.941406 209.835938 141.382812 209.519531 141.882812 C 209.203125 142.378906 208.960938 142.910156 208.792969 143.476562 C 206.546875 149.929688 203.894531 157.929688 200.84375 167.472656 C 197.792969 177.011719 194.59375 187.304688 191.253906 198.351562 C 187.90625 209.40625 184.503906 220.710938 181.042969 232.265625 C 177.582031 243.820312 174.347656 254.878906 171.335938 265.441406 C 168.417969 275.699219 165.761719 285.03125 163.363281 293.441406 C 163.304688 293.667969 163.238281 293.890625 163.179688 294.109375 C 161.902344 298.597656 160.792969 302.601562 159.855469 306.121094 C 158.992188 309.289062 158.277344 312.042969 157.683594 314.410156 C 157.109375 316.667969 157.683594 318.550781 159.378906 320.023438 C 161.15625 321.550781 163.203125 322.5 165.515625 322.875 C 166.292969 323.019531 167.078125 323.089844 167.867188 323.089844 C 169.433594 323.085938 170.949219 322.804688 172.414062 322.25 C 172.921875 322.078125 173.402344 321.84375 173.847656 321.546875 C 174.292969 321.246094 174.695312 320.894531 175.046875 320.488281 C 175.394531 320.078125 175.6875 319.632812 175.917969 319.148438 C 176.148438 318.664062 176.3125 318.15625 176.40625 317.625 C 176.878906 314.828125 177.386719 312.058594 177.925781 309.316406 C 178.78125 304.914062 179.722656 300.585938 180.753906 296.328125 C 183.300781 285.707031 186.472656 275.277344 190.269531 265.035156 C 196.375 248.667969 202.890625 233.984375 209.820312 220.980469 C 216.75 207.976562 223.691406 196.917969 230.648438 187.804688 C 237.582031 178.6875 243.523438 171.945312 248.472656 167.574219 C 251.523438 164.914062 253.710938 163.582031 255.039062 163.582031 C 255.152344 163.578125 255.261719 163.589844 255.375 163.613281 C 256.65625 163.890625 257.230469 165.101562 257.140625 167.28125 C 257.046875 169.460938 256.308594 172.285156 254.933594 175.777344 C 253.484375 179.457031 251.808594 183.035156 249.917969 186.507812 C 247.996094 190.085938 245.785156 193.476562 243.28125 196.675781 C 240.835938 199.789062 238.527344 202.058594 236.34375 203.460938 C 230.816406 207.078125 226.496094 210.355469 223.386719 213.292969 C 220.277344 216.230469 218.148438 218.921875 217.003906 221.371094 C 215.875 223.8125 215.589844 225.945312 216.152344 227.789062 C 216.4375 228.71875 216.882812 229.566406 217.488281 230.328125 C 218.09375 231.089844 218.820312 231.714844 219.660156 232.207031 C 220.761719 232.929688 221.96875 233.277344 223.285156 233.242188 C 224.253906 233.230469 225.210938 233.09375 226.144531 232.828125 C 228.820312 232.128906 231.753906 230.679688 234.949219 228.488281 C 238.527344 226.007812 241.859375 223.230469 244.953125 220.167969 C 247.125 218.066406 249.253906 215.777344 251.378906 213.289062 C 253.863281 211.570312 256.441406 210.007812 259.121094 208.609375 C 261.585938 207.308594 264.117188 206.167969 266.726562 205.1875 C 270.582031 203.699219 274.5625 202.734375 278.671875 202.296875 C 281.894531 201.988281 285.03125 202.183594 287.507812 202.984375 C 289.984375 203.789062 291.652344 205.074219 292.710938 206.890625 C 293.769531 208.707031 294.304688 211.410156 294.167969 214.488281 C 293.949219 217.800781 293.328125 221.035156 292.300781 224.191406 C 291.757812 225.863281 291.210938 227.511719 290.5 229.195312 C 289.789062 230.875 289.117188 232.597656 288.328125 234.246094 C 287.542969 235.894531 286.738281 237.542969 285.929688 239.1875 C 285.121094 240.832031 284.222656 242.417969 283.25 243.972656 C 281.402344 247.121094 279.394531 250.160156 277.226562 253.097656 C 275.035156 256.039062 272.703125 258.867188 270.238281 261.582031 C 267.757812 264.296875 265.148438 266.871094 262.402344 269.316406 C 259.660156 271.761719 256.796875 274.0625 253.820312 276.214844 C 250.839844 278.367188 247.761719 280.363281 244.578125 282.199219 C 241.394531 284.039062 238.125 285.710938 234.773438 287.214844 C 231.417969 288.71875 227.996094 290.046875 224.507812 291.203125 C 221.015625 292.359375 217.476562 293.335938 213.886719 294.128906 C 210.296875 294.921875 206.679688 295.53125 203.027344 295.957031 C 199.375 296.382812 195.710938 296.617188 192.035156 296.667969 C 191.007812 296.667969 189.980469 296.703125 188.957031 296.667969 C 187.867188 301.007812 186.890625 305.398438 186.023438 309.839844 C 190.410156 310.011719 194.792969 309.945312 199.171875 309.640625 C 203.550781 309.339844 207.902344 308.800781 212.222656 308.023438 C 216.546875 307.25 220.8125 306.242188 225.023438 305.007812 C 229.238281 303.769531 233.371094 302.308594 237.421875 300.621094 C 241.476562 298.9375 245.425781 297.039062 249.273438 294.925781 C 253.121094 292.8125 256.84375 290.5 260.441406 287.984375 C 264.035156 285.46875 267.484375 282.765625 270.789062 279.875 C 274.089844 276.988281 277.226562 273.925781 280.199219 270.699219 C 282.992188 267.640625 285.625 264.460938 288.101562 261.15625 C 290.566406 257.835938 292.851562 254.398438 294.964844 250.847656 C 296.050781 249.09375 296.996094 247.25 298 245.453125 C 299.007812 243.660156 299.90625 241.785156 300.71875 239.886719 C 301.527344 237.988281 302.390625 236.117188 303.160156 234.191406 C 303.933594 232.265625 304.671875 230.261719 305.332031 228.222656 C 306.742188 223.9375 307.574219 219.539062 307.835938 215.035156 C 307.964844 212.558594 307.8125 210.097656 307.375 207.65625 Z M 307.375 207.65625 " fill-opacity="1" fill-rule="nonzero"/></g><g clip-path="url(#bdf2379b4e)"><path fill="#cfff20" d="M 186.246094 106.789062 C 185.875 107.816406 185.496094 108.839844 185.117188 109.867188 C 184.355469 111.90625 183.578125 113.933594 182.808594 115.929688 C 181.652344 118.914062 180.476562 121.84375 179.277344 124.714844 C 178.875 125.667969 178.480469 126.628906 178.078125 127.574219 C 177.277344 129.460938 176.449219 131.316406 175.65625 133.160156 C 172.394531 140.492188 169.035156 147.414062 165.570312 153.917969 C 158.621094 166.910156 151.679688 177.96875 144.742188 187.09375 C 137.804688 196.21875 131.867188 202.964844 126.929688 207.324219 C 123.859375 209.992188 121.664062 211.324219 120.339844 211.324219 C 120.226562 211.324219 120.117188 211.3125 120.003906 211.292969 C 118.722656 211.015625 118.148438 209.804688 118.238281 207.625 C 118.332031 205.441406 119.070312 202.621094 120.445312 199.128906 C 121.898438 195.449219 123.570312 191.871094 125.464844 188.398438 C 127.339844 184.789062 129.550781 181.398438 132.097656 178.230469 C 146.535156 160.867188 152.738281 163.488281 158.375 153.527344 C 158.960938 152.566406 159.328125 151.527344 159.476562 150.410156 C 159.625 149.292969 159.542969 148.191406 159.226562 147.109375 C 158.941406 146.179688 158.496094 145.332031 157.890625 144.570312 C 157.285156 143.808594 156.558594 143.183594 155.71875 142.695312 C 154.621094 141.96875 153.414062 141.621094 152.097656 141.65625 C 151.125 141.667969 150.167969 141.808594 149.234375 142.070312 C 146.558594 142.773438 143.625 144.21875 140.429688 146.410156 C 136.855469 148.894531 133.519531 151.671875 130.425781 154.734375 C 126.734375 158.339844 123.316406 162.195312 120.179688 166.292969 C 120.179688 166.292969 102.289062 187.371094 100.746094 210.449219 C 100.273438 217.320312 101.136719 222.667969 103.722656 226.492188 C 103.875 226.722656 104.03125 226.941406 104.195312 227.148438 C 104.511719 227.566406 104.847656 227.960938 105.210938 228.335938 C 107.53125 230.726562 110.609375 231.921875 114.445312 231.921875 C 114.730469 231.921875 115.019531 231.921875 115.308594 231.921875 C 120.441406 231.679688 126.199219 228.605469 132.582031 222.699219 C 137.367188 218.15625 141.664062 213.195312 145.46875 207.808594 C 149.648438 202.019531 153.488281 196.171875 156.996094 190.261719 C 160.5 184.351562 163.535156 178.832031 166.109375 173.699219 C 168.683594 168.546875 170.640625 164.554688 171.976562 161.726562 C 169.355469 171.828125 165.886719 181.632812 161.574219 191.140625 C 157.050781 201.25 152.5625 211.738281 148.109375 222.609375 C 146.933594 225.558594 147.082031 228.117188 148.558594 230.285156 C 150.003906 232.4375 151.921875 234.023438 154.304688 235.042969 C 155.875 235.722656 157.511719 236.0625 159.222656 236.070312 C 160.011719 236.0625 160.796875 235.992188 161.574219 235.851562 C 162.15625 235.761719 162.714844 235.59375 163.25 235.347656 C 163.785156 235.101562 164.277344 234.78125 164.722656 234.394531 C 165.167969 234.007812 165.546875 233.5625 165.867188 233.066406 C 166.183594 232.570312 166.425781 232.039062 166.589844 231.472656 C 168.839844 225.015625 171.488281 217.019531 174.542969 207.476562 C 177.59375 197.9375 180.789062 187.640625 184.132812 176.597656 C 187.476562 165.542969 190.882812 154.238281 194.34375 142.683594 C 197.804688 131.128906 201.039062 120.070312 204.046875 109.507812 C 207.050781 98.972656 209.765625 89.414062 212.195312 80.839844 C 212.320312 80.390625 212.449219 79.941406 212.574219 79.503906 C 213.832031 75.066406 214.917969 71.136719 215.832031 67.714844 C 216.554688 65.007812 217.179688 62.609375 217.699219 60.523438 C 218.277344 58.265625 217.699219 56.382812 216.007812 54.90625 C 214.230469 53.375 212.1875 52.417969 209.875 52.039062 C 209.097656 51.890625 208.3125 51.820312 207.523438 51.820312 C 205.957031 51.824219 204.441406 52.105469 202.976562 52.660156 C 202.464844 52.828125 201.984375 53.0625 201.535156 53.359375 C 201.085938 53.660156 200.683594 54.011719 200.328125 54.417969 C 199.976562 54.824219 199.683594 55.273438 199.449219 55.757812 C 199.21875 56.246094 199.054688 56.753906 198.957031 57.285156 C 198.507812 59.949219 198.023438 62.59375 197.515625 65.214844 C 196.71875 69.320312 195.84375 73.371094 194.898438 77.363281 C 194.078125 80.867188 193.191406 84.3125 192.242188 87.726562 C 191.640625 89.894531 191.015625 92.050781 190.371094 94.191406 C 189.726562 96.332031 189.058594 98.449219 188.363281 100.546875 C 187.691406 102.644531 186.984375 104.722656 186.246094 106.789062 Z M 186.246094 106.789062 " fill-opacity="1" fill-rule="nonzero"/></g></svg>