<svg xmlns="http://www.w3.org/2000/svg" xmlns:xlink="http://www.w3.org/1999/xlink" width="500" zoomAndPan="magnify" viewBox="0 0 375 374.999991" height="500" preserveAspectRatio="xMidYMid meet" version="1.0"><defs><g/></defs><rect x="-37.5" width="450" fill="#ffffff" y="-37.499999" height="449.999989" fill-opacity="1"/><rect x="-37.5" width="450" fill="#ffffff" y="-37.499999" height="449.999989" fill-opacity="1"/><rect x="-37.5" width="450" fill="#050505" y="-37.499999" height="449.999989" fill-opacity="1"/><g fill="#ffffff" fill-opacity="1"><g transform="translate(118.013519, 195.227419)"><g><path d="M 23.875 -24.515625 L 23.875 0 L 20.984375 0.03125 L 7.140625 -19.21875 L 7.328125 -10.671875 L 7.328125 0 L 4 0 L 4 -24.515625 L 6.890625 -24.515625 L 20.734375 -5.234375 L 20.5625 -14.78125 L 20.5625 -24.515625 Z M 23.875 -24.515625 "/></g></g></g><g fill="#ffffff" fill-opacity="1"><g transform="translate(145.925022, 195.227419)"><g><path d="M 10.96875 -1.84375 C 12.164062 -1.84375 13.242188 -2.101562 14.203125 -2.625 C 15.171875 -3.15625 16.097656 -3.878906 16.984375 -4.796875 L 18.21875 -2.78125 C 17.25 -1.695312 16.171875 -0.851562 14.984375 -0.25 C 13.796875 0.351562 12.441406 0.65625 10.921875 0.65625 C 8.898438 0.65625 7.195312 0.191406 5.8125 -0.734375 C 4.4375 -1.660156 3.40625 -2.898438 2.71875 -4.453125 C 2.03125 -6.003906 1.6875 -7.71875 1.6875 -9.59375 C 1.6875 -11.519531 2.03125 -13.265625 2.71875 -14.828125 C 3.40625 -16.390625 4.445312 -17.625 5.84375 -18.53125 C 7.238281 -19.445312 8.929688 -19.90625 10.921875 -19.90625 C 12.316406 -19.90625 13.570312 -19.625 14.6875 -19.0625 C 15.8125 -18.5 16.6875 -17.675781 17.3125 -16.59375 C 17.9375 -15.507812 18.25 -14.234375 18.25 -12.765625 C 18.25 -12.210938 18.164062 -11.492188 18 -10.609375 L 4.984375 -10.609375 C 4.953125 -10.390625 4.9375 -10.078125 4.9375 -9.671875 C 4.9375 -7.285156 5.445312 -5.382812 6.46875 -3.96875 C 7.488281 -2.550781 8.988281 -1.84375 10.96875 -1.84375 Z M 10.8125 -17.53125 C 9.394531 -17.53125 8.222656 -17.117188 7.296875 -16.296875 C 6.378906 -15.484375 5.726562 -14.367188 5.34375 -12.953125 L 15.078125 -12.953125 L 15.078125 -13.234375 C 15.078125 -14.628906 14.660156 -15.691406 13.828125 -16.421875 C 12.992188 -17.160156 11.988281 -17.53125 10.8125 -17.53125 Z M 10.8125 -17.53125 "/></g></g></g><g fill="#ffffff" fill-opacity="1"><g transform="translate(165.975152, 195.227419)"><g><path d="M 28.59375 -19.25 L 22.53125 0.28125 L 19.625 0.28125 L 14.609375 -15.25 L 9.625 0.28125 L 6.703125 0.28125 L 0.609375 -19.25 L 3.9375 -19.25 L 8.21875 -3.71875 L 13.203125 -19.25 L 16.078125 -19.25 L 21.125 -3.640625 L 25.359375 -19.25 Z M 28.59375 -19.25 "/></g></g></g><g fill="#d80505" fill-opacity="1"><g transform="translate(195.180469, 195.227419)"><g><path d="M 7.9375 -21.5 L 7.9375 -13.625 L 17.09375 -13.625 L 17.09375 -10.609375 L 7.9375 -10.609375 L 7.9375 0 L 3.828125 0 L 3.828125 -24.515625 L 18.53125 -24.515625 L 18.53125 -21.5 Z M 7.9375 -21.5 "/></g></g></g><g fill="#d80505" fill-opacity="1"><g transform="translate(214.617552, 195.227419)"><g><path d="M 3.28125 -28.84375 L 7.25 -28.84375 L 7.25 0 L 3.28125 0 Z M 3.28125 -28.84375 "/></g></g></g><g fill="#d80505" fill-opacity="1"><g transform="translate(225.147479, 195.227419)"><g><path d="M 5.40625 -24.703125 C 4.738281 -24.703125 4.160156 -24.941406 3.671875 -25.421875 C 3.191406 -25.898438 2.953125 -26.46875 2.953125 -27.125 C 2.953125 -27.789062 3.191406 -28.367188 3.671875 -28.859375 C 4.160156 -29.359375 4.738281 -29.609375 5.40625 -29.609375 C 6.082031 -29.609375 6.660156 -29.359375 7.140625 -28.859375 C 7.617188 -28.367188 7.859375 -27.789062 7.859375 -27.125 C 7.859375 -26.46875 7.617188 -25.898438 7.140625 -25.421875 C 6.660156 -24.941406 6.082031 -24.703125 5.40625 -24.703125 Z M 3.421875 -19.578125 L 7.390625 -19.578125 L 7.390625 0 L 3.421875 0 Z M 3.421875 -19.578125 "/></g></g></g><g fill="#d80505" fill-opacity="1"><g transform="translate(236.001951, 195.227419)"><g><path d="M 15.828125 0 L 10.453125 -7.75 L 5.078125 0 L 0.65625 0 L 8.109375 -10.171875 L 1.296875 -19.578125 L 5.765625 -19.578125 L 10.5 -12.515625 L 15.21875 -19.578125 L 19.625 -19.578125 L 12.796875 -10.234375 L 20.34375 0 Z M 15.828125 0 "/></g></g></g></svg>